<svg width="506" height="199" viewBox="0 0 506 199" fill="none" xmlns="http://www.w3.org/2000/svg">
<path fill-rule="evenodd" clip-rule="evenodd" d="M62.2358 0.618669C61.2736 0.818448 60.6131 1.25878 59.6713 2.32699C58.4522 3.70914 57.9548 5.31145 58.2687 6.81184C58.8151 9.38859 59.1535 10.6362 59.4593 11.2274C59.9934 12.2507 59.765 12.9275 58.7009 13.482C58.2524 13.7144 57.861 13.9631 57.8325 14.0284C57.7999 14.0936 57.6898 14.1507 57.5838 14.1507C57.3228 14.1507 55.3862 14.9824 54.8684 15.3168C54.1631 15.7693 51.7412 17.0862 51.6148 17.0862C51.5455 17.0862 51.1867 17.3064 50.8157 17.5755C50.4447 17.8446 50.0737 18.0647 49.9921 18.0647C49.9106 18.0647 49.5233 18.3338 49.1359 18.66C48.7445 18.9862 48.1737 19.3613 47.868 19.4877C47.5581 19.6181 47.0729 19.9035 46.7916 20.1196C46.5062 20.3357 46.2289 20.511 46.1759 20.511C46.074 20.511 45.173 21.0981 44.753 21.4406C44.6185 21.5507 44.2189 21.885 43.8601 22.1867C43.5013 22.4925 42.9509 22.8798 42.637 23.0511C42.323 23.2264 41.5525 23.7687 40.9246 24.262C40.2967 24.7553 39.571 25.269 39.3141 25.4036C39.0532 25.5341 38.5028 26.0029 38.091 26.4433C37.6751 26.8795 37.0432 27.4544 36.6844 27.7194C35.0535 28.9181 27.9063 35.9471 26.4548 37.7777C25.9126 38.4627 24.9463 39.5961 24.3102 40.2974C23.6701 40.9986 23.083 41.6958 23.0056 41.8467C22.9281 41.9975 22.7813 42.1932 22.6794 42.2829C22.5775 42.3726 22.3002 42.7437 22.0637 43.1106C21.8273 43.4735 21.2279 44.2522 20.7264 44.8393C20.229 45.4264 19.6501 46.2663 19.4421 46.7066C19.2342 47.1429 18.7735 47.9339 18.4147 48.4598C16.8165 50.8205 16.2049 51.7786 15.9807 52.2801C15.8461 52.5777 15.5974 52.9977 15.4262 53.2178C15.2549 53.4339 14.8757 54.2004 14.5863 54.918C14.2968 55.6397 13.9951 56.2268 13.9176 56.2268C13.8402 56.2268 13.6648 56.4673 13.5262 56.7568C13.3917 57.0503 13.0981 57.5355 12.8739 57.8372C12.6496 58.143 12.3438 58.8035 12.1889 59.305C12.0381 59.8106 11.7853 60.414 11.6263 60.6423C11.3409 61.0663 10.6478 62.8073 9.92202 64.9355C9.71001 65.5553 9.43684 66.179 9.31045 66.3217C9.18814 66.4644 8.8905 67.2636 8.65811 68.0912C8.42163 68.923 8.1077 69.877 7.95684 70.2113C7.28411 71.7076 6.70923 73.6076 6.26075 75.797C5.99166 77.0976 5.63287 78.6388 5.45756 79.2218C5.28224 79.8048 5.05799 81.1258 4.96422 82.1533C4.86637 83.1848 4.6829 84.3957 4.55651 84.8442C2.87265 90.7846 2.7381 106.139 4.3078 113.849C4.56466 115.121 4.85414 117.049 4.95199 118.138C5.04576 119.223 5.24147 120.393 5.38417 120.735C5.69403 121.477 5.62472 122.268 5.12323 123.744C4.58097 125.334 3.31298 128.331 2.97866 128.824C2.81557 129.065 2.68102 129.362 2.68102 129.493C2.68102 129.623 2.50978 130.051 2.30185 130.447C1.84521 131.299 1.29072 132.869 1.12356 133.766C1.05424 134.12 0.813695 134.818 0.589452 135.315C0.259204 136.033 0.173584 136.477 0.173584 137.472C0.173584 138.556 0.234741 138.809 0.613915 139.384C0.854466 139.747 1.05017 140.118 1.05017 140.204C1.05017 140.579 2.02461 141.345 2.92565 141.68C4.92345 142.422 4.98053 142.426 6.43199 142.03C7.6429 141.7 8.77227 141.512 11.0799 141.268C12.0911 141.162 12.3071 141.329 13.2694 142.947C13.6567 143.6 14.0236 144.13 14.0848 144.13C14.1459 144.13 14.3294 144.497 14.4884 144.949C14.6515 145.398 14.9695 146.042 15.1978 146.376C15.4262 146.711 15.7442 147.277 15.9113 147.636C16.0744 147.995 16.3517 148.472 16.5229 148.696C17.0774 149.426 19.6419 153.409 19.805 153.789C19.9885 154.229 20.5144 154.942 21.8436 156.557C22.3858 157.213 22.9648 157.968 23.1401 158.237C23.4214 158.681 24.7302 160.247 26.0634 161.743C26.3447 162.057 26.6872 162.518 26.8218 162.766C27.099 163.26 29.5698 165.82 29.7736 165.82C29.8429 165.82 30.3566 166.354 30.9152 167.003C31.4738 167.651 32.3748 168.58 32.9212 169.062C33.4675 169.543 34.6091 170.607 35.4612 171.426C36.3133 172.246 37.194 173.041 37.4182 173.196C38.1073 173.665 39.7545 174.941 40.2804 175.406C41.3894 176.396 42.1355 176.967 43.534 177.893C44.3412 178.427 45.5154 179.23 46.1433 179.674C46.7712 180.119 47.5785 180.62 47.9373 180.791C48.2961 180.959 48.6915 181.22 48.8138 181.366C48.9362 181.517 49.0992 181.64 49.1767 181.64C49.4703 181.64 51.0767 182.488 51.9329 183.095C52.6994 183.641 58.2484 186.532 58.5297 186.532C58.5827 186.532 59.1086 186.826 59.6998 187.184C60.291 187.543 60.8496 187.837 60.9474 187.837C61.0412 187.837 61.6038 188.049 62.195 188.31C64.3559 189.26 65.7625 189.777 67.0957 190.12C67.8459 190.312 68.7388 190.609 69.0813 190.785C69.4238 190.96 70.2229 191.213 70.863 191.347C71.499 191.478 72.5795 191.775 73.2644 192.008C73.9453 192.236 74.9809 192.534 75.5599 192.668C76.1388 192.803 76.8156 193.019 77.0684 193.145C77.5414 193.394 77.9083 193.475 80.9621 194.038C81.9936 194.23 83.1923 194.487 83.6285 194.613C84.0648 194.739 85.716 194.919 87.298 195.013C88.8799 195.106 90.7268 195.29 91.3996 195.416C93.6828 195.848 96.2024 196.032 99.5783 196.016C104.185 195.995 109.673 195.714 111.051 195.432C111.679 195.302 113.367 195.151 114.802 195.09C116.237 195.029 117.852 194.874 118.39 194.739C123.054 193.586 124.331 193.508 126.178 194.287C126.74 194.523 127.637 194.813 128.175 194.935C129.447 195.225 131.033 195.877 132.232 196.603C132.762 196.925 133.647 197.275 134.214 197.398C134.776 197.512 135.514 197.797 135.853 198.026C136.823 198.686 138.099 198.996 139.836 199C141.756 199 142.388 198.788 143.359 197.814C144.39 196.778 144.928 195.555 144.945 194.197C144.957 193.068 144.215 189.806 143.811 189.227C143.689 189.052 143.587 188.522 143.587 188.057C143.587 187.315 143.644 187.168 144.035 186.899C144.284 186.728 144.741 186.491 145.055 186.369C145.369 186.251 146.229 185.835 146.967 185.448C147.705 185.06 148.732 184.571 149.254 184.359C149.776 184.147 150.657 183.629 151.211 183.205C151.766 182.785 152.695 182.223 153.274 181.962C153.857 181.697 154.391 181.383 154.465 181.264C154.534 181.146 155.08 180.779 155.672 180.453C156.263 180.127 156.842 179.744 156.956 179.605C157.07 179.47 157.254 179.356 157.364 179.356C157.474 179.356 157.702 179.201 157.873 179.01C158.203 178.643 159.948 177.465 160.841 177.008C161.139 176.853 161.514 176.604 161.677 176.453C163.019 175.198 163.646 174.651 165.359 173.273C167.512 171.54 169.081 170.179 170.578 168.752C172.425 166.99 176.449 162.783 177.056 161.975C177.39 161.535 178.01 160.805 178.43 160.357C179.47 159.244 183.18 154.241 183.926 152.936C184.595 151.774 185.007 151.134 186.234 149.324C187.11 148.032 187.636 147.102 188.431 145.435C188.709 144.852 189.018 144.228 189.124 144.048C189.655 143.139 191.208 139.849 191.208 139.629C191.208 139.563 191.379 139.286 191.591 139.009C191.799 138.732 192.207 137.88 192.496 137.117C192.786 136.355 193.12 135.511 193.242 135.242C193.361 134.973 193.548 134.43 193.654 134.035C193.756 133.639 193.944 133.162 194.066 132.975C194.188 132.787 194.368 132.265 194.466 131.817C194.563 131.368 194.89 130.378 195.187 129.615C196.092 127.299 196.708 125.236 197.156 123.01C197.389 121.844 197.719 120.45 197.89 119.912C198.062 119.373 198.245 118.383 198.306 117.71C198.363 117.037 198.514 116.026 198.641 115.459C199.517 111.566 199.851 107.118 199.843 99.4444C199.839 92.4725 199.668 89.7204 199.036 86.5607C198.759 85.1704 198.494 83.6659 198.449 83.2174C198.404 82.7689 198.302 81.7782 198.229 81.0158C198.151 80.2533 197.964 79.283 197.809 78.8549C197.544 78.1251 197.544 78.0354 197.813 77.224C197.968 76.7551 198.2 75.9683 198.327 75.4749C198.457 74.9857 198.657 74.4719 198.771 74.3333C198.995 74.0642 199.741 72.3885 199.937 71.7199C200.002 71.4956 200.129 71.2184 200.222 71.1042C200.439 70.8351 201.389 68.5519 201.902 67.0719C202.122 66.4441 202.485 65.5593 202.71 65.1027C203.178 64.1649 203.366 62.95 203.211 61.8981C203.064 60.9359 201.788 58.934 201.148 58.669C200.883 58.5589 200.667 58.408 200.667 58.3346C200.667 58.1185 199.052 57.6945 198.233 57.6945C197.25 57.6945 194.661 58.1185 194.417 58.3224C194.311 58.408 193.617 58.6078 192.875 58.7668C191.09 59.1501 190.633 58.9625 189.973 57.5844C189.724 57.0626 189.43 56.5244 189.316 56.3898C189.206 56.2553 188.921 55.6315 188.684 55.0036C188.452 54.3757 188.085 53.6052 187.873 53.2912C187.661 52.9773 187.066 52.0232 186.548 51.1711C186.034 50.319 185.508 49.5117 185.39 49.3772C184.754 48.6759 183.902 47.4364 183.706 46.9309C183.584 46.6169 183.257 46.0869 182.984 45.7567C182.279 44.9086 181.928 44.4357 180.848 42.8537C180.33 42.0913 179.339 40.8437 178.654 40.0813C177.969 39.3189 177.068 38.2547 176.653 37.7166C176.237 37.1784 175.576 36.4323 175.193 36.0572C173.758 34.6628 172.84 33.7413 172.115 32.9667C171.707 32.5304 170.826 31.6946 170.158 31.1116C169.493 30.5286 168.506 29.603 167.968 29.0608C167.43 28.5144 166.696 27.8906 166.337 27.6746C165.979 27.4585 165.318 26.9162 164.87 26.4677C164.421 26.0152 163.585 25.2813 163.015 24.8328C162.444 24.3843 161.84 23.8951 161.681 23.7442C161.518 23.5933 161.037 23.2753 160.609 23.0348C160.181 22.7983 159.459 22.2927 159.007 21.9136C158.554 21.5344 157.743 20.9391 157.205 20.5926C156.666 20.246 156.189 19.9117 156.145 19.8465C156.1 19.7853 155.806 19.6263 155.492 19.4917C155.178 19.3613 154.603 18.9862 154.212 18.66C153.825 18.3338 153.437 18.0647 153.36 18.0647C153.278 18.0647 152.756 17.7875 152.194 17.4532C151.223 16.8742 149.099 15.8019 145.462 14.0569C144.565 13.6247 143.648 13.1151 143.424 12.9194C143.2 12.7237 142.466 12.3975 141.793 12.1977C141.124 11.998 140.293 11.6922 139.95 11.5169C139.322 11.1948 138.164 10.7707 135.596 9.9227C134.833 9.66991 133.953 9.31113 133.639 9.12766C133.325 8.94011 132.628 8.67917 132.089 8.54055C131.551 8.40193 129.68 7.92082 127.931 7.47234C126.182 7.01978 123.915 6.4979 122.895 6.31035C121.876 6.12688 120.849 5.89856 120.612 5.80887C120.376 5.71917 119.487 5.50308 118.635 5.32369C114.317 4.42672 109.747 4.12093 100.859 4.12908C92.9815 4.13724 88.517 4.36148 86.6415 4.84666C85.9851 5.01382 85.0433 5.20137 84.55 5.25845C84.0566 5.31553 82.9925 5.55608 82.1852 5.79256C80.2241 6.35928 78.1774 6.40413 77.4558 5.89449C76.7504 5.393 73.9535 4.23509 72.9383 4.02308C72.4613 3.92115 71.7437 3.64391 71.34 3.40335C70.9364 3.15873 69.9864 2.79994 69.2281 2.60016C68.4657 2.3963 67.7318 2.13944 67.5972 2.02528C67.0917 1.61349 64.5312 0.6309 63.7484 0.553434C63.304 0.508587 62.6231 0.537126 62.2358 0.618669ZM66.0112 8.86264C65.8481 9.29482 66.0724 10.7422 66.5168 12.0917C66.9693 13.478 67.0509 14.7419 66.7451 15.6348C66.3863 16.6867 65.8563 17.1637 63.9645 18.1381C62.9534 18.6559 61.9422 19.2063 61.718 19.3613C61.4937 19.5162 60.98 19.769 60.5764 19.9239C60.1728 20.0829 59.5204 20.3887 59.129 20.6048C58.7376 20.8209 58.2769 21.0003 58.1097 21.0003C57.9426 21.0003 57.8039 21.0737 57.8039 21.1634C57.8039 21.2531 57.6735 21.3265 57.5185 21.3305C57.3636 21.3305 57.0497 21.4773 56.8254 21.6526C56.6012 21.8279 56.3566 21.9747 56.2791 21.9747C56.2016 21.9788 55.6634 22.309 55.0886 22.7127C54.5096 23.1163 54.004 23.4466 53.9633 23.4466C53.9225 23.4466 53.0337 23.9603 51.9899 24.5882C50.9503 25.216 50.0288 25.7298 49.9432 25.7298C49.8576 25.7298 49.3683 26.1008 48.8505 26.5574C47.9006 27.3932 47.7864 27.4707 46.5674 28.1434C46.1923 28.3473 45.7519 28.6408 45.5929 28.7958C44.6878 29.656 42.2007 31.7232 41.6748 32.0493C41.4424 32.1961 41.1407 32.4367 41.0061 32.5834C40.8716 32.7343 40.3212 33.2195 39.783 33.6639C39.2448 34.1124 38.095 35.205 37.2307 36.0979C34.1851 39.2332 31.7429 41.7978 31.4126 42.2014C30.9111 42.813 28.3222 45.8219 27.9756 46.197C27.8084 46.3764 27.4741 46.886 27.2295 47.3304C26.7647 48.1785 26.4793 48.5821 25.4682 49.8053C25.1297 50.213 24.6894 50.8449 24.4896 51.2078C24.0248 52.0518 23.9229 52.2189 23.2176 53.2994C22.8955 53.7886 22.5041 54.5184 22.3451 54.9221C22.1861 55.3257 22.0026 55.6927 21.9292 55.7375C21.7253 55.868 20.7101 57.2379 20.4207 57.7761C20.278 58.0452 19.9966 58.6853 19.8009 59.1949C19.6052 59.7086 19.3443 60.2142 19.2179 60.3161C19.0915 60.4221 18.9896 60.573 18.9896 60.6505C18.9896 60.8176 18.4351 62.106 18.0478 62.8317C17.5177 63.8347 17.4362 63.9774 17.2568 64.2179C17.1589 64.3525 16.7757 65.2332 16.4128 66.1791C16.0459 67.1209 15.6341 68.1116 15.4955 68.3807C15.3528 68.6457 15.2386 68.9597 15.2386 69.0738C15.2386 69.3144 14.2642 72.2988 13.8402 73.3507C13.6811 73.7544 13.408 74.2803 13.2327 74.5168C12.9228 74.9449 12.4417 76.959 12.1318 79.1362C12.0421 79.76 11.8301 80.714 11.667 81.2563C11.4999 81.7945 11.3082 82.7893 11.243 83.458C11.1737 84.1307 11.0147 84.9747 10.8842 85.3334C10.7456 85.7167 10.5499 87.4209 10.4194 89.4147C10.289 91.2983 10.1463 92.9862 10.1014 93.1656C9.88125 94.0055 9.71817 100.663 9.86494 102.869C9.95057 104.17 10.0933 106.384 10.183 107.786C10.2686 109.189 10.3868 110.453 10.4439 110.599C10.5825 110.966 11.1941 110.926 12.0136 110.493C12.6252 110.171 12.9554 110.127 14.733 110.122C17.4362 110.122 17.3261 110.294 16.9714 106.645C16.3884 100.606 16.8572 91.0292 17.9988 85.6637C18.0926 85.2152 18.2435 84.2082 18.3291 83.4294C18.4147 82.6466 18.6023 81.7823 18.745 81.5091C18.8877 81.2318 19.222 79.9639 19.4951 78.6877C20.0211 76.2088 20.7183 73.9582 21.6601 71.7199C21.9822 70.9575 22.2472 70.2113 22.2472 70.0564C22.2513 69.9055 22.3165 69.7425 22.3981 69.6895C22.4796 69.6405 22.7732 69.0534 23.0504 68.3889C23.3277 67.7202 23.768 66.7132 24.0248 66.1464C24.2858 65.5797 24.5549 64.9314 24.6201 64.7072C24.6894 64.483 24.8443 64.2261 24.9667 64.1364C25.0931 64.0467 25.6598 63.056 26.2306 61.9348C28.0857 58.3061 28.6279 57.3643 29.2762 56.6671C29.6268 56.292 30.1161 55.5826 30.3648 55.0933C30.6094 54.6041 31.1802 53.7112 31.6287 53.1118C32.0772 52.5084 32.5542 51.852 32.6888 51.6481C32.8233 51.4443 33.1576 51.0162 33.4267 50.6941C33.6999 50.372 34.1361 49.8175 34.393 49.4587C34.6539 49.0999 34.9801 48.6841 35.1228 48.5373C35.2655 48.3905 35.6732 47.8482 36.032 47.3304C36.9738 45.9728 41.1284 41.6224 42.955 40.0813C43.4361 39.6777 44.2393 38.956 44.7408 38.4749C45.5562 37.6962 46.8038 36.681 47.7946 36.0001C48.5284 35.4904 50.8973 33.7332 51.3621 33.3499C51.6312 33.1298 52.2305 32.7506 52.6953 32.506C53.1642 32.2654 53.633 31.9556 53.7472 31.821C53.8573 31.6905 54.159 31.4704 54.4158 31.3358C54.6727 31.2054 55.0111 30.9852 55.1619 30.8506C56.2954 29.8599 57.9303 28.8284 58.3747 28.8284C58.4807 28.8284 58.7009 28.6816 58.864 28.5022C59.0271 28.3228 59.2187 28.176 59.2921 28.176C59.6631 28.176 61.5753 27.1568 62.3377 26.5574C63.3488 25.7542 66.5127 24.4251 67.4056 24.4251C67.8133 24.4251 68.3107 24.6167 68.9508 25.0163C69.7581 25.5178 69.962 25.7542 70.3575 26.6227C70.6143 27.1812 70.916 28.1067 71.0261 28.6816C71.2177 29.6887 71.5765 30.6223 71.7681 30.6223C72.1392 30.6223 72.975 30.0026 73.4194 29.3992C73.7089 29.0037 73.9494 28.6449 73.9494 28.6001C73.9494 28.5552 74.2103 28.2413 74.5324 27.8988C74.8505 27.5604 75.3438 26.9488 75.6251 26.5452C75.9064 26.1416 76.359 25.583 76.6322 25.3017C76.9053 25.0244 77.256 24.6208 77.4109 24.4047C78.2222 23.2753 79.5066 21.6567 80.2282 20.8494C82.332 18.501 83.2942 16.9231 83.2127 15.9487C83.1678 15.4187 83.0944 15.3453 82.2668 15.015C81.2271 14.6033 81.1782 14.5829 79.9673 14.1792C79.4658 14.0121 78.7237 13.6451 78.316 13.3638C77.9042 13.0825 77.2152 12.7726 76.7789 12.6707C76.3427 12.5688 75.621 12.3445 75.1725 12.1692C74.7241 11.9939 73.77 11.6269 73.0524 11.3538C70.8916 10.5261 69.807 10.045 69.5013 9.78C69.0609 9.39675 67.0876 8.60578 66.5698 8.60578C66.3048 8.60578 66.0683 8.71179 66.0112 8.86264ZM92.9489 10.8319C91.6483 11.0154 91.2569 11.1336 91.0204 11.4149C90.7064 11.79 90.7064 11.8226 91.1549 13.4983C91.3139 14.0814 91.4485 15.0517 91.4607 15.6552C91.477 16.3972 91.5667 16.8334 91.7339 17.0006C91.95 17.2167 93.1527 17.2575 100.618 17.3023C107.696 17.3472 109.584 17.4083 111.051 17.6326C112.038 17.7834 113.636 18.0199 114.603 18.1585C115.573 18.2971 116.804 18.5581 117.342 18.7334C117.881 18.9087 119.255 19.2267 120.392 19.4387C121.534 19.6507 123.788 20.2052 125.403 20.6782C127.017 21.1471 128.807 21.6689 129.378 21.832C129.953 21.9992 130.597 22.2479 130.813 22.3906C131.025 22.5292 131.731 22.8309 132.379 23.0552C133.027 23.2835 134.173 23.683 134.927 23.944C135.685 24.209 136.419 24.527 136.558 24.6534C136.701 24.7839 137.324 25.0774 137.944 25.3098C139.106 25.7461 140.651 26.5574 141.222 27.0263C141.402 27.1731 141.952 27.4748 142.445 27.6909C142.939 27.907 143.607 28.2494 143.934 28.4451C144.26 28.6449 144.79 28.9181 145.112 29.0526C145.434 29.1872 145.793 29.3788 145.907 29.4726C146.082 29.6234 147.631 30.6631 148.467 31.1931C148.61 31.2828 148.944 31.5071 149.213 31.6946C149.482 31.8822 150.033 32.2124 150.437 32.4285C150.84 32.6446 151.574 33.1787 152.067 33.6109C152.561 34.043 153.315 34.622 153.739 34.9033C154.163 35.1806 154.514 35.4537 154.514 35.5067C154.514 35.5638 155.003 35.9308 155.602 36.3262C156.202 36.7177 156.817 37.158 156.972 37.2966C157.127 37.4393 157.649 37.9204 158.13 38.3689C158.615 38.8174 159.908 39.9549 161 40.8967C162.097 41.8385 162.994 42.6621 162.994 42.7274C162.994 42.7926 163.328 43.1962 163.74 43.6243C164.152 44.0524 164.601 44.5865 164.739 44.8108C164.874 45.035 165.281 45.459 165.64 45.7485C165.999 46.0421 166.505 46.5558 166.765 46.8901L167.524 47.8686C167.679 48.0684 167.972 48.4231 168.176 48.6555C168.763 49.3242 170.814 52.0599 171.548 53.1567C171.772 53.4828 172.029 53.8009 172.119 53.8579C172.213 53.915 172.502 54.392 172.763 54.9098C173.02 55.4317 173.562 56.2634 173.962 56.7568C174.365 57.2501 174.969 58.196 175.303 58.8565C175.637 59.517 176.012 60.1734 176.139 60.3161C176.265 60.4588 176.367 60.626 176.367 60.6871C176.367 60.7483 176.542 61.0745 176.759 61.4088C176.975 61.7431 177.236 62.2935 177.342 62.6279C177.448 62.9663 177.815 63.6635 178.157 64.1772C179.205 65.751 179.213 67.814 178.173 68.6498C177.121 69.4938 176.934 69.5957 176.057 69.771C173.195 70.354 172.616 70.6027 172.616 71.2469C172.616 71.6261 173.37 72.4252 174.059 72.7759C174.361 72.9267 175.058 73.3752 175.609 73.7707C176.159 74.1621 176.86 74.6513 177.162 74.8552C177.464 75.0591 178.051 75.5198 178.467 75.8786C179.8 77.0365 181.578 78.2922 182.809 78.9486C183.078 79.0913 183.739 79.6214 184.277 80.1269C184.815 80.6325 185.524 81.1829 185.855 81.3542C186.185 81.5254 186.507 81.7456 186.568 81.8475C186.788 82.2022 187.767 82.5039 188.113 82.3204C188.505 82.1084 189.002 81.1585 189.516 79.654C189.724 79.0343 189.964 78.4472 190.046 78.3452C190.123 78.2433 190.315 77.7296 190.466 77.2036C190.617 76.6777 190.935 75.9438 191.171 75.5728C191.946 74.3578 192.7 72.7962 192.933 71.9237C193.059 71.4508 193.381 70.6272 193.654 70.089C193.923 69.5549 194.229 68.7354 194.327 68.2665C194.429 67.8018 194.726 67.0679 194.991 66.6357C195.257 66.2076 195.448 65.7224 195.42 65.5675C195.346 65.1761 194.355 65.1027 193.361 65.4126C192.57 65.6613 190.743 66.0771 189.732 66.2443C187.885 66.5501 185.961 64.8621 184.709 61.8328C184.452 61.2172 184.048 60.4262 183.812 60.0756C183.576 59.729 183.38 59.3254 183.38 59.1786C183.376 58.7423 182.691 57.4907 181.871 56.4347C181.443 55.8843 180.946 55.0852 180.762 54.6611C180.579 54.233 180.114 53.4054 179.723 52.8142C179.335 52.223 178.826 51.3668 178.597 50.9061C178.365 50.4495 177.953 49.8623 177.68 49.6014C177.407 49.3445 177.183 49.0632 177.183 48.9776C177.183 48.892 177.007 48.6351 176.795 48.4068C176.579 48.1785 176.228 47.6485 176.008 47.2326C175.792 46.8167 175.372 46.2378 175.075 45.9401C174.565 45.4305 172.893 43.5142 171.915 42.3156C171.666 42.0098 170.639 40.9049 169.632 39.8611C167.573 37.7247 167.561 37.7084 167.165 37.1091C167.01 36.8644 166.725 36.6198 166.533 36.5586C166.341 36.4975 165.396 35.6535 164.429 34.6832C163.463 33.7128 162.179 32.5304 161.571 32.0616C160.642 31.344 159.626 30.5082 158.269 29.3462C157.673 28.8406 156.74 28.176 156.622 28.176C156.397 28.176 155.036 27.2057 154.387 26.59C154.053 26.2679 153.303 25.7501 152.72 25.4362C152.137 25.1223 151.546 24.7676 151.403 24.6452C151.26 24.5229 151.077 24.421 150.995 24.421C150.914 24.4169 150.555 24.1968 150.204 23.9317C149.849 23.6627 149.491 23.4466 149.397 23.4466C149.307 23.4466 149.083 23.312 148.899 23.1449C148.712 22.9777 148.047 22.5659 147.419 22.2316C146.792 21.9013 146.168 21.5385 146.033 21.4325C145.74 21.2041 145.026 20.8535 143.505 20.193C142.878 19.9198 142.18 19.5896 141.956 19.4591C140.794 18.7864 138.091 17.551 137.422 17.392C136.998 17.2901 136.362 17.0414 136.003 16.8416C135.645 16.6377 135.094 16.4176 134.78 16.3523C134.466 16.2871 133.606 15.9895 132.868 15.6959C132.13 15.3983 131.139 15.0762 130.666 14.9743C130.194 14.8723 129.403 14.6522 128.909 14.485C128.416 14.3179 127.531 14.0691 126.94 13.9346C126.353 13.8001 125.399 13.4698 124.82 13.2048C124.245 12.9357 123.368 12.6707 122.875 12.6136C122.051 12.5198 119.781 12.1162 117.705 11.6922C116.845 11.5209 114.578 11.2437 110.399 10.8074C107.3 10.4853 95.3095 10.5017 92.9489 10.8319ZM95.8029 23.7687C94.9507 23.842 93.6665 24.0133 92.9489 24.1478C92.2313 24.2865 91.0571 24.4455 90.3395 24.5025C88.4844 24.6534 86.2461 25.1712 85.2309 25.6849C84.4114 26.0967 83.706 26.8021 83.2575 27.6542C83.0618 28.0293 81.4065 30.182 79.6533 32.351C79.1396 32.9871 78.634 33.6639 78.5321 33.8514C78.4302 34.043 78.0918 34.4752 77.7819 34.8136C77.468 35.1561 77.2111 35.4864 77.2111 35.5516C77.2111 35.6127 76.9706 35.9145 76.6811 36.2121C76.2081 36.7013 75.7433 37.1947 75.2786 37.6921C73.9576 39.0987 73.7292 39.1843 71.34 39.1802C69.4931 39.1802 69.2158 39.1395 68.4045 38.7562C67.6135 38.3852 67.4423 38.214 66.9571 37.2925C66.6554 36.7177 66.1947 35.8492 65.9378 35.364C65.681 34.8748 65.469 34.3774 65.469 34.2551C65.469 33.7576 64.9797 33.1053 64.5475 33.0238C63.9156 32.9015 63.4915 33.1012 62.195 34.1409C61.139 34.9808 60.662 35.2743 58.6194 36.3507C58.2157 36.5627 57.8651 36.787 57.8366 36.844C57.808 36.9052 57.3881 37.1947 56.8988 37.4923C56.4096 37.7859 56.01 38.0835 56.01 38.1487C56.01 38.2099 55.6267 38.4912 55.1538 38.7725C54.6809 39.0498 53.7105 39.751 52.9929 40.33C52.2753 40.9049 51.2112 41.7081 50.6282 42.1076C50.0451 42.5072 49.1278 43.2778 48.5896 43.8241C47.342 45.0921 46.9098 45.4876 46.3064 45.9401C46.0373 46.1399 45.5358 46.6455 45.1893 47.0654C44.8427 47.4813 43.8397 48.5944 42.9591 49.5362C42.0743 50.4821 41.0184 51.7093 40.6107 52.2719C40.2029 52.8305 39.5832 53.5644 39.2407 53.9028C38.8983 54.2371 38.3478 54.918 38.0217 55.4113C37.194 56.6549 36.8923 57.0707 36.5661 57.401C36.4112 57.5559 36.0646 58.1267 35.7915 58.669C35.5183 59.2071 35.2288 59.6516 35.1514 59.6516C35.0739 59.6516 34.919 59.888 34.8007 60.1816C34.6866 60.4751 34.3645 61.0419 34.0831 61.4455C33.8018 61.8491 33.443 62.4525 33.2881 62.7909C33.1291 63.1253 32.8396 63.5778 32.6398 63.7939C32.4441 64.0059 32.1873 64.487 32.0731 64.8621C31.959 65.2332 31.6858 65.8121 31.4656 66.1424C31.2495 66.4767 30.9845 67.0026 30.8826 67.3166C30.6828 67.9241 29.9 69.5305 29.211 70.7414C28.9827 71.145 28.6442 71.989 28.4649 72.6168C28.2814 73.2447 27.7595 74.8593 27.3029 76.2047C26.8503 77.5502 26.361 79.2014 26.2224 79.8742C26.0797 80.5469 25.8351 81.3542 25.6761 81.6681C25.3499 82.3164 24.9422 84.0573 24.7832 85.5006C24.722 86.0388 24.5345 87.1315 24.3632 87.9265C24.033 89.4513 24.0085 89.7327 23.6334 96.2846C23.4296 99.8725 23.4296 100.981 23.6416 105.173C23.9066 110.436 23.9718 111.162 24.3021 112.499C24.4244 112.997 24.5956 113.898 24.6813 114.497C24.8525 115.7 25.1746 116.23 26.1327 116.87C26.463 117.094 27.1398 117.637 27.6331 118.073C28.1265 118.513 28.9337 119.1 29.4271 119.382C29.9204 119.663 30.8744 120.34 31.5472 120.882C32.2199 121.428 33.125 122.126 33.5531 122.439C36.717 124.739 38.8208 126.769 39.5995 128.274C40.1255 129.285 39.7952 130.944 38.8697 131.98C38.5028 132.388 38.1358 132.795 37.773 133.203C37.0065 134.063 36.5172 134.332 34.6458 134.92C33.0965 135.405 32.8518 135.552 32.8518 136C32.8518 136.326 33.9078 138.495 34.4746 139.319C34.658 139.588 34.8089 139.943 34.8089 140.11C34.8089 140.273 34.9434 140.444 35.1024 140.485C35.2655 140.53 35.4857 140.762 35.5917 141.003C35.7792 141.431 36.191 142.075 37.1736 143.482C37.4427 143.869 37.7933 144.407 37.9564 144.684C38.1154 144.962 38.5272 145.447 38.8738 145.761C39.2163 146.075 39.7096 146.662 39.9665 147.061C40.2233 147.461 40.5454 147.909 40.68 148.056C40.8145 148.203 41.2548 148.708 41.6585 149.181C43.3382 151.151 46.7467 154.616 48.0188 155.648C48.3327 155.905 48.8913 156.427 49.2583 156.806C49.6252 157.189 50.0125 157.503 50.1145 157.503C50.2164 157.503 50.302 157.56 50.302 157.625C50.3061 157.735 50.9788 158.298 53.7553 160.516C54.265 160.92 54.742 161.254 54.8154 161.254C54.8888 161.254 55.484 161.731 56.1405 162.314C56.7928 162.897 57.437 163.374 57.5675 163.374C57.6979 163.374 57.8039 163.447 57.8039 163.537C57.8039 163.627 57.9793 163.7 58.1913 163.7C58.4033 163.7 58.6764 163.814 58.7947 163.957C58.9088 164.1 59.5449 164.52 60.2013 164.895C60.8577 165.27 61.7425 165.775 62.1665 166.02C62.5946 166.265 63.3652 166.681 63.8789 166.946C64.3967 167.206 65.0449 167.614 65.3181 167.847C65.5954 168.079 66.0153 168.315 66.2558 168.377C66.4964 168.434 66.949 168.65 67.2629 168.854C67.5768 169.057 68.4575 169.42 69.2199 169.661C69.9824 169.906 70.6795 170.158 70.7692 170.228C70.8589 170.297 71.3197 170.468 71.7885 170.607C72.2615 170.745 73.3174 171.194 74.1329 171.602C74.9483 172.009 75.7474 172.344 75.9146 172.344C76.0777 172.344 76.253 172.409 76.3019 172.49C76.3549 172.572 76.9624 172.764 77.6596 172.914C78.3527 173.069 79.7675 173.436 80.799 173.73C81.8305 174.023 83.1882 174.313 83.8161 174.378C84.444 174.439 85.5081 174.631 86.1808 174.798C86.8535 174.969 88.0563 175.185 88.8514 175.283C89.6464 175.377 90.7472 175.561 91.2976 175.687C93.5604 176.205 97.8088 176.462 102.489 176.364C106.913 176.27 111.337 175.944 112.552 175.622C112.89 175.532 113.685 175.377 114.313 175.279C117.868 174.725 118.928 174.019 121.122 170.733C121.46 170.228 122.215 169.265 122.798 168.593C124.274 166.897 125.317 165.563 125.953 164.556C126.251 164.083 126.557 163.7 126.626 163.7C126.801 163.7 127.755 162.705 128.257 162C128.591 161.527 128.893 161.352 129.953 161.013C130.662 160.785 131.58 160.601 131.992 160.606C132.762 160.606 135.164 161.291 135.563 161.621C135.685 161.723 135.999 162.224 136.256 162.742C136.517 163.256 136.803 163.721 136.896 163.778C136.986 163.835 137.178 164.295 137.329 164.801C137.973 167.019 138.478 167.227 140.578 166.142C141.292 165.775 142.388 165.148 143.016 164.752C143.644 164.357 144.525 163.859 144.973 163.643C145.422 163.431 146.323 162.807 146.979 162.257C147.631 161.706 148.263 161.254 148.378 161.254C148.496 161.254 148.806 161.066 149.067 160.834C149.328 160.602 149.907 160.137 150.355 159.798C150.803 159.46 151.399 158.967 151.68 158.702C151.961 158.437 152.475 158.013 152.822 157.756C153.168 157.499 153.604 157.136 153.792 156.948C153.98 156.761 154.518 156.276 154.991 155.872C156.226 154.816 160.809 150.172 161.314 149.463C161.551 149.128 161.8 148.859 161.869 148.859C161.938 148.859 162.517 148.166 163.153 147.314C163.793 146.466 164.376 145.732 164.454 145.683C164.527 145.638 164.751 145.288 164.951 144.909C165.147 144.529 165.693 143.808 166.162 143.302C166.627 142.797 167.189 141.969 167.406 141.467C167.626 140.962 167.899 140.546 168.009 140.546C168.119 140.542 168.213 140.46 168.213 140.359C168.213 140.257 168.506 139.743 168.865 139.217C169.224 138.691 169.518 138.222 169.518 138.177C169.518 138.128 169.84 137.558 170.231 136.909C171.21 135.287 171.984 133.79 172.449 132.632C172.665 132.094 173.228 130.9 173.705 129.974C174.834 127.772 175.344 126.557 175.796 124.967C176 124.25 176.318 123.279 176.506 122.815C176.693 122.35 176.95 121.314 177.077 120.519C177.207 119.72 177.488 118.672 177.708 118.187C178.194 117.107 178.418 116.275 178.728 114.367C178.862 113.559 179.078 112.275 179.209 111.513C179.576 109.417 179.992 101.088 179.869 98.2213C179.702 94.1686 179.311 90.0221 178.887 87.8653C178.667 86.7441 178.487 85.6107 178.487 85.3498C178.487 84.2571 177.786 83.4131 175.491 81.7496C174.528 81.0484 173.566 80.3186 173.273 80.0658C173.138 79.9475 172.473 79.4501 171.801 78.965C170.504 78.0272 169.762 77.4605 169.448 77.1629C169.342 77.065 169.098 76.9305 168.898 76.8693C168.702 76.8041 168.539 76.694 168.539 76.6206C168.539 76.4331 166.867 75.1691 166.048 74.737C165.224 74.3007 164.152 72.837 163.732 71.569C163.259 70.1502 163.54 69.0575 164.833 67.2554C165.469 66.3748 165.632 66.2524 166.908 65.7428C167.671 65.4411 168.633 65.1149 169.049 65.0211C169.465 64.9274 169.966 64.6787 170.17 64.4667L170.533 64.0793L170.149 63.0886C169.937 62.5422 169.554 61.8736 169.297 61.6004C168.604 60.8543 167.789 59.5986 167.3 58.5018C167.043 57.931 166.57 57.2624 166.15 56.875C165.758 56.5122 165.204 55.7987 164.923 55.2849C164.637 54.7712 164.291 54.229 164.148 54.0822C164.005 53.9354 163.524 53.2912 163.076 52.6511C162.358 51.6277 159.667 48.7004 159.296 48.5373C159.223 48.5087 158.766 48.0032 158.285 47.4242C157.804 46.8412 157.217 46.2459 156.98 46.0991C156.744 45.9564 155.855 45.1247 155.003 44.2604C154.151 43.3919 153.197 42.5235 152.883 42.3319C152.569 42.1402 152.202 41.8793 152.067 41.7529C151.627 41.3452 149.071 39.4371 148.153 38.8337C147.66 38.5075 146.889 37.9408 146.441 37.5698C145.568 36.8522 145.377 36.7258 144.239 36.0816C143.179 35.4823 142.482 35.046 141.137 34.1409C140.48 33.7006 139.567 33.1991 139.114 33.0278C138.658 32.8566 138.177 32.6201 138.042 32.5019C137.753 32.2532 134.067 30.4592 133.839 30.4592C133.753 30.4592 133.492 30.3084 133.255 30.1249C133.023 29.9414 132.195 29.5745 131.421 29.3136C130.646 29.0486 129.929 28.7672 129.827 28.6857C129.553 28.4614 123.956 26.7083 123.511 26.7083C123.377 26.7083 122.981 26.5574 122.622 26.378C121.998 26.0559 120.637 25.7094 118.798 25.3995C118.007 25.265 117.22 25.1223 116.433 24.9796C115.626 24.8328 114.342 24.6452 113.579 24.5596C112.817 24.474 111.312 24.2538 110.236 24.0704C108.577 23.7809 107.451 23.7238 102.816 23.683C99.8107 23.6586 96.655 23.6953 95.8029 23.7687ZM99.1665 41.125C98.1798 41.4961 96.973 42.3971 96.7447 42.9353C96.5164 43.4735 96.5041 44.7985 96.7243 45.194C96.8018 45.3326 97.2747 45.8749 97.7762 46.4009C98.9341 47.6199 100.149 50.0254 100.406 51.6114C100.504 52.2189 100.704 52.9039 100.85 53.1281C101.152 53.5807 101.535 54.7631 102.094 56.9606C102.795 59.7209 102.962 60.259 103.28 60.8095C103.456 61.1152 103.757 61.9511 103.949 62.6686C104.145 63.3862 104.471 64.2302 104.675 64.5482C104.883 64.8621 105.103 65.278 105.164 65.4696C105.225 65.6613 105.376 65.857 105.498 65.9059C105.625 65.9548 106.016 66.3829 106.367 66.8599C107.064 67.8018 108.736 69.4978 109.278 69.8118C111.007 70.8107 111.638 71.0472 113.302 71.3203C114.859 71.5731 115.288 71.5853 116.971 71.4059C118.023 71.2959 119.238 71.1328 119.679 71.0512C120.698 70.8555 121.493 71.0961 121.799 71.6913C121.921 71.9319 122.137 72.5394 122.28 73.0409C122.427 73.5424 122.675 74.1295 122.838 74.3456C123.001 74.5616 123.222 74.9408 123.328 75.1895C123.593 75.8011 124.282 78.5572 124.514 79.9557C124.62 80.5836 124.885 81.5172 125.097 82.031C125.309 82.5447 125.484 83.2949 125.484 83.6985C125.484 84.7993 125.13 84.9298 122.076 84.9298C120.73 84.9298 119.242 85.0113 118.765 85.1133C117.542 85.3742 116.237 86.524 115.601 87.902L115.129 88.9254L115.084 115.101C115.055 130.288 115.1 142.21 115.19 143.498C115.316 145.329 115.418 145.879 115.765 146.641C115.997 147.147 116.189 147.628 116.189 147.71C116.189 147.942 118.17 149.177 118.835 149.357C119.222 149.463 122.7 149.504 128.375 149.475L137.308 149.43L138.458 148.831C140.187 147.938 140.937 146.65 141.304 143.967C141.593 141.859 141.601 91.0659 141.312 89.7408C140.978 88.1915 140.452 87.2089 139.424 86.1937C138.278 85.0603 137.875 84.9298 135.506 84.9298C134.279 84.9298 133.606 84.8605 133.41 84.7178C133.129 84.5099 133.133 84.4528 133.459 83.3723C134.128 81.1625 134.703 80.9546 137.492 81.9168C139.404 82.5773 141.952 82.8994 143.75 82.7159C144.737 82.6099 146.832 81.9943 147.909 81.4887C148.826 81.0565 151.064 78.8834 151.802 77.7133C152.124 77.1955 152.451 76.7755 152.528 76.7755C152.74 76.7755 153.613 75.3526 154.236 73.9827C154.546 73.2977 154.877 72.6943 154.966 72.6372C155.06 72.5842 155.223 72.1521 155.329 71.6791C155.439 71.2102 155.814 70.2195 156.161 69.4815C156.511 68.7436 156.797 68.0382 156.797 67.9118C156.797 67.7895 157.013 67.288 157.274 66.7947C157.535 66.3014 157.869 65.49 158.016 64.9885C158.163 64.487 158.415 63.9081 158.575 63.7002C158.738 63.4922 158.97 63.0274 159.088 62.6686C159.239 62.212 159.789 61.5352 160.923 60.4017C161.816 59.5129 162.643 58.5426 162.77 58.2449C163.092 57.4703 163.051 56.1656 162.684 55.4439C161.918 53.9476 160.866 53.703 155.9 53.8539C151.876 53.9762 150.033 54.1433 148.867 54.4858C147.701 54.8242 143.509 56.0351 142.282 56.3817C140.019 57.0177 137.789 58.1389 136.085 59.4885C135.681 59.8065 135.147 60.1734 134.894 60.2998C134.646 60.4262 134.022 60.9399 133.508 61.4414C131.278 63.6268 129.513 66.0445 129.337 67.1535C129.244 67.7202 128.571 68.6213 128.237 68.6213C128.053 68.6213 127.605 67.5286 127.605 67.0842C127.605 66.8477 127.8 66.2688 128.041 65.804C128.42 65.066 128.889 63.4107 129.398 61.0378C129.574 60.206 129.394 58.8728 128.815 56.716C128.326 54.8976 127.772 53.7927 126.81 52.7C126.483 52.3331 126.072 51.8234 125.892 51.5707C125.211 50.6044 123.205 48.7534 122.284 48.2356C121.758 47.942 121.179 47.5628 121 47.3957C120.123 46.5884 119.511 46.2092 118.349 45.7648C117.656 45.4957 116.975 45.1818 116.841 45.0636C116.706 44.9453 116.083 44.6681 115.455 44.4438C114.827 44.2196 113.506 43.6896 112.519 43.2655C111.467 42.8089 110.22 42.4053 109.502 42.287C108.222 42.075 106.089 41.6999 103.876 41.3004C101.784 40.9212 99.8963 40.8519 99.1665 41.125ZM107.415 48.9205C107.182 49.1529 107.166 49.6463 107.37 50.2904C107.451 50.5514 107.712 51.6441 107.957 52.7204C108.197 53.7968 108.528 55.1178 108.691 55.656C108.854 56.1941 109.033 56.9076 109.086 57.242C109.143 57.5763 109.482 58.4203 109.836 59.1134C110.191 59.8065 110.481 60.4833 110.481 60.6097C110.481 60.7361 110.701 61.311 110.97 61.8777C111.239 62.4485 111.459 62.9744 111.459 63.0437C111.459 63.1171 111.875 63.5738 112.381 64.063L113.298 64.9478L115.071 65.0089C117.677 65.0986 117.889 64.7928 116.425 63.0478C115.85 62.3669 115.177 61.7798 114.59 61.4536C111.602 59.7902 110.676 58.6771 110.856 56.9525C110.962 55.9047 111.369 55.1055 112.103 54.494C112.625 54.0577 112.76 54.0251 114.073 54.0251C115.365 54.0251 115.544 54.0659 116.201 54.5103C116.6 54.7753 117.257 55.2972 117.669 55.6723C118.08 56.0433 118.582 56.4021 118.786 56.4673C119.365 56.6508 119.638 56.8995 121.342 58.8117C121.954 59.5007 122.223 59.3865 122.223 58.4406C122.223 57.1971 119.96 54.1311 118.46 53.3401C118.137 53.173 117.587 52.8101 117.236 52.541C116.882 52.2679 116.339 51.9458 116.025 51.8235C115.712 51.7011 115.226 51.428 114.949 51.22C114.672 51.0162 114.366 50.8449 114.264 50.8449C114.166 50.8449 113.441 50.5922 112.65 50.2823C111.023 49.6463 108.169 48.7248 107.835 48.7248C107.712 48.7248 107.521 48.8145 107.415 48.9205ZM71.34 61.0092L69.9538 61.6901L69.2648 62.9948C68.3107 64.8091 68.3148 65.5063 69.3015 67.659C70.439 70.1379 70.3493 70.4437 68.1884 71.6383C67.5728 71.9767 67.0346 72.3478 66.9897 72.466C66.9449 72.5842 66.6717 72.7596 66.3863 72.8533C66.1009 72.9471 65.4853 73.2773 65.0205 73.5831C64.5557 73.8889 64.0053 74.1947 63.8014 74.2559C63.4059 74.3822 60.9841 75.7889 60.1687 76.3719C59.8996 76.5635 59.0556 77.0242 58.2932 77.3912C57.5308 77.7622 56.6583 78.2474 56.3525 78.4757C56.0467 78.6999 55.4392 79.0057 55.007 79.1484C54.5708 79.2911 54.2161 79.4583 54.212 79.5194C54.212 79.5806 53.8369 79.8497 53.3843 80.1188C52.9318 80.3879 52.308 80.7711 51.9981 80.9709C51.6882 81.1748 51.2357 81.3868 50.991 81.4479C50.7464 81.5091 50.2735 81.7293 49.9391 81.9372C49.6048 82.1492 49.299 82.3204 49.2583 82.3204C49.2175 82.3204 48.7201 82.6303 48.1533 83.0095C47.0036 83.7801 46.706 83.9554 45.2219 84.7504C44.6511 85.0521 43.9661 85.4639 43.697 85.6596C43.4279 85.8594 42.9509 86.1163 42.637 86.2345C42.323 86.3527 41.9561 86.5362 41.8216 86.6463C41.687 86.7523 41.4505 86.8828 41.2956 86.9358C41.1448 86.9888 40.5128 87.3679 39.8931 87.7756C39.2733 88.1834 38.6944 88.5177 38.6047 88.5177C38.2989 88.5177 36.4275 90.12 36.0076 90.7397C35.3919 91.6489 35.1962 92.9699 35.4204 94.7476C35.5958 96.1134 35.6773 96.3376 36.5539 97.7687C37.0758 98.6168 37.7118 99.689 37.9687 100.154C38.2255 100.615 38.8289 101.569 39.3141 102.27C39.7952 102.971 40.1907 103.623 40.1907 103.713C40.1907 103.807 40.6025 104.276 41.104 104.753C42.0458 105.65 42.5351 105.846 44.4472 106.078C45.6541 106.225 47.7905 105.719 48.6671 105.075C49.0707 104.777 49.8087 104.341 50.302 104.109C50.7953 103.876 51.4925 103.501 51.8513 103.277C52.2101 103.049 53.0174 102.616 53.6453 102.319C54.7338 101.797 56.487 100.696 56.6623 100.427C56.7683 100.268 58.1383 99.6075 58.3666 99.6075C58.4644 99.6075 58.8191 99.42 59.1535 99.1916C59.4919 98.9633 60.238 98.5311 60.821 98.2294C61.4 97.9236 62.2236 97.4385 62.6517 97.1449C63.0798 96.8554 64.3844 96.1215 65.5505 95.5222C68.7878 93.8465 69.2444 93.5896 70.0231 92.9903C70.4186 92.6804 70.8467 92.4317 70.9731 92.4317C71.1688 92.4317 72.4286 91.7549 75.5558 89.9569C75.9717 89.7204 76.7912 89.2556 77.3742 88.9336C77.9572 88.6074 78.687 88.1589 78.9969 87.9347C80.167 87.0866 80.7868 87.2864 81.6919 88.799C82.7846 90.6256 83.6734 91.335 85.3205 91.7019C86.3602 91.9303 86.7149 91.9466 87.4203 91.7916C88.3417 91.5837 89.9277 90.703 90.4374 90.1118C90.8614 89.6185 91.5015 88.2323 91.9989 86.7237C92.7246 84.5262 93.5645 82.5732 94.0089 82.0636C94.2454 81.7863 94.5349 81.1992 94.649 80.7589C94.7591 80.3145 95.0608 79.4787 95.3136 78.8956C95.5664 78.3126 95.8273 77.6521 95.8926 77.4279C95.9578 77.2036 96.1413 76.853 96.3003 76.6532C96.4552 76.4494 96.6795 75.8989 96.7895 75.4301C96.9893 74.5902 97.3685 73.6688 97.8455 72.8615C98.1513 72.3437 98.7955 70.8514 99.0809 70.0075C99.3704 69.139 99.3663 66.705 99.0768 66.175C98.1962 64.5808 96.8018 63.6594 94.9874 63.4718C94.4044 63.4107 93.5237 63.2272 93.0304 63.06C91.3873 62.5096 83.2738 61.368 79.739 61.1927C78.3976 61.1275 77.0195 60.944 75.988 60.6953C73.6722 60.1408 73.0198 60.1816 71.34 61.0092ZM149.54 61.103C148.912 61.2702 147.701 61.4985 146.849 61.6127C145.23 61.8247 143.677 62.3832 142.405 63.215C142.021 63.4637 141.308 63.7898 140.814 63.9407C140.101 64.1568 139.587 64.5115 138.307 65.6572C137.418 66.4481 136.591 67.2962 136.46 67.5408C136.199 68.0464 136.232 68.9719 136.521 69.0657C136.627 69.1024 137.178 68.7313 137.748 68.2462C138.817 67.3451 140.513 66.4522 142.527 65.7387C144.288 65.1108 144.676 65.0986 145.793 65.6327C147.004 66.2035 147.505 67.0352 147.497 68.45C147.493 69.8362 147.04 70.6802 146.078 71.0879C144.949 71.5649 143.742 72.2091 143.175 72.6372C142.902 72.8411 142.388 73.1387 142.029 73.3018C141.01 73.7584 139.836 74.794 139.836 75.2344C139.836 75.532 140.028 75.7032 140.753 76.0416C141.915 76.5921 142.747 76.5921 143.995 76.0376C145.793 75.2384 146.898 74.0398 147.811 71.8952C148.019 71.4059 148.329 70.8188 148.496 70.5905C148.802 70.1746 149.507 68.4174 149.809 67.3166C149.976 66.6968 150.685 65.2658 151.015 64.8703C151.325 64.4993 152.145 61.2906 151.97 61.1234C151.656 60.8176 150.644 60.8095 149.54 61.103ZM77.6759 67.6672C77.5088 67.8344 77.3742 68.0382 77.3742 68.1198C77.3742 68.291 77.9083 69.4448 78.3201 70.1706C78.5036 70.4967 78.5933 70.9941 78.581 71.6669C78.5688 72.5965 78.5158 72.731 77.892 73.4812C77.3701 74.105 76.8564 74.4679 75.6373 75.0713C74.7689 75.5035 73.8312 76.0498 73.5539 76.2944C73.2808 76.535 72.5591 76.959 71.9516 77.2362C71.3441 77.5176 70.4308 78.0231 69.913 78.3656C69.3993 78.7081 68.6247 79.1199 68.1925 79.283C67.7644 79.4461 67.214 79.7437 66.9693 79.9435C66.0928 80.6651 64.7147 81.4642 63.7321 81.819C63.1776 82.0228 62.5742 82.3286 62.3907 82.4998C62.2032 82.6711 61.8851 82.8872 61.6813 82.9809C61.4774 83.0706 60.7599 83.511 60.0871 83.9594C59.4144 84.4079 58.4604 84.9665 57.967 85.203C57.4737 85.4394 56.8703 85.7982 56.6256 86.0021C56.381 86.2019 55.8061 86.4913 55.3454 86.6463C54.8847 86.7971 54.057 87.2456 53.5066 87.6411C52.9562 88.0366 51.9165 88.6563 51.199 89.0151C50.4814 89.3739 48.8669 90.2179 47.6111 90.8906C46.3553 91.5592 45.0792 92.2238 44.7734 92.3624C44.4717 92.5051 43.8194 92.9128 43.3301 93.2757C42.2456 94.0789 42.2497 94.189 43.4687 96.3784C44.9283 99 45.2423 99.1631 47.1218 98.3028C47.7089 98.0337 48.2594 97.8136 48.3409 97.8136C48.4224 97.8136 48.5855 97.6831 48.7038 97.5282C49.0095 97.1204 49.7434 96.6312 50.9584 96.0319C51.5374 95.7465 52.1979 95.404 52.4221 95.2776C52.6464 95.1512 53.2335 94.8617 53.7268 94.6334C55.1171 93.9933 55.5452 93.7364 56.3362 93.0882C56.7398 92.7538 57.5715 92.2483 58.1872 91.9669C58.8028 91.6815 59.7936 91.1637 60.3888 90.8172C60.9841 90.4706 62.248 89.7816 63.198 89.2923C64.1439 88.799 65.5831 87.9591 66.3945 87.4209C67.2058 86.8828 68.221 86.3242 68.6573 86.1774C69.0895 86.0266 69.595 85.7738 69.7826 85.6107C69.966 85.4476 70.5858 85.1092 71.1566 84.8605C72.2533 84.3794 73.1707 83.8371 73.7007 83.3479C74.0513 83.0299 75.458 82.2348 76.8646 81.558C77.3457 81.3256 78.1692 80.8527 78.6911 80.5061C79.213 80.1596 79.6982 79.8742 79.7716 79.8701C79.8449 79.8701 80.0855 79.7233 80.3097 79.548C80.6196 79.3074 80.9784 79.23 81.7979 79.2259L82.8824 79.2218L83.9262 80.2411C84.501 80.8037 85.2186 81.611 85.5203 82.035C86.087 82.8301 86.3439 82.9605 86.6334 82.6058C86.8454 82.3449 87.563 80.3226 88.0441 78.6429C88.3825 77.4523 89.4915 75.1039 90.0052 74.4923C90.1193 74.3578 90.2539 74.1009 90.3028 73.9215C90.3517 73.7421 90.629 72.9716 90.9144 72.2091C91.1998 71.4467 91.4689 70.6557 91.5178 70.4478C91.6279 69.9626 91 69.2736 90.4455 69.2736C90.2253 69.2736 89.4099 69.1635 88.6393 69.0249C86.9922 68.7354 79.3353 67.5245 78.5321 67.4307C78.1448 67.3859 77.8879 67.4552 77.6759 67.6672ZM191.208 89.6593C190.629 90.1078 189.259 90.3524 187.726 90.2872L186.413 90.2301L186.258 90.7683C186.144 91.1474 186.189 92.024 186.413 93.7853C186.943 98.0215 186.792 103.489 185.973 109.768C185.879 110.469 185.7 111.333 185.573 111.696C185.447 112.055 185.198 113.506 185.019 114.913C184.839 116.324 184.501 118.134 184.269 118.941C184.032 119.744 183.735 121.025 183.6 121.787C183.465 122.55 183.221 123.479 183.058 123.85C182.895 124.221 182.707 124.772 182.642 125.073C182.577 125.375 182.242 126.248 181.896 127.018C181.553 127.785 181.186 128.812 181.084 129.301C180.982 129.786 180.766 130.406 180.607 130.675C180.448 130.944 180.265 131.348 180.196 131.572C180.126 131.797 179.833 132.477 179.535 133.085C179.242 133.692 178.915 134.443 178.813 134.757C178.707 135.07 178.345 135.747 178.002 136.261C177.664 136.779 177.333 137.435 177.272 137.721C177.211 138.01 177.032 138.414 176.877 138.618C176.722 138.825 176.461 139.307 176.29 139.694C176.122 140.077 175.906 140.444 175.809 140.509C175.711 140.571 175.45 140.99 175.23 141.439C175.005 141.887 174.475 142.711 174.047 143.27C173.619 143.828 173.109 144.599 172.918 144.982C172.722 145.365 172.363 145.899 172.123 146.168C171.878 146.438 171.634 146.849 171.581 147.086C171.523 147.322 170.945 148.138 170.292 148.9C169.644 149.663 168.816 150.674 168.457 151.151C168.099 151.628 167.426 152.402 166.965 152.871C166.248 153.601 165.783 154.135 164.27 155.958C164.152 156.1 163.724 156.557 163.32 156.977C162.917 157.393 162.33 158.041 162.016 158.416C161.702 158.791 161 159.452 160.458 159.888C159.211 160.895 159.06 161.026 157.775 162.232C157.192 162.783 156.238 163.553 155.655 163.945C155.072 164.34 154.379 164.891 154.114 165.168C153.849 165.445 153.132 165.938 152.524 166.269C151.912 166.599 151.415 166.917 151.415 166.982C151.415 167.264 147.468 169.836 145.299 170.966C144.671 171.296 144.011 171.695 143.832 171.858C143.477 172.181 140.276 173.811 139.999 173.811C139.905 173.811 139.555 173.983 139.22 174.191C138.474 174.659 136.672 175.279 136.061 175.279C135.812 175.279 135.2 175.128 134.699 174.941C133.969 174.668 133.671 174.435 133.178 173.758C132.509 172.841 132.179 171.928 132.159 170.937C132.142 170.081 131.796 169.176 131.457 169.11C131.176 169.053 130.503 169.673 129.358 171.035C129.023 171.434 128.746 171.826 128.746 171.907C128.746 172.075 128.257 172.678 127.054 173.995C126.593 174.5 125.827 175.475 125.346 176.156C124.865 176.841 124.416 177.399 124.343 177.399C124.269 177.399 124.074 177.611 123.911 177.868C123.352 178.737 121.497 181.167 120.8 181.933C120.123 182.675 119.817 183.568 119.964 184.347C120.058 184.82 120.934 185.305 122.745 185.892C123.67 186.19 124.628 186.601 124.881 186.805C125.13 187.009 125.9 187.356 126.593 187.576C128.359 188.138 130.047 188.787 130.626 189.125C130.899 189.284 131.637 189.57 132.273 189.765C132.905 189.957 133.61 190.263 133.839 190.442C134.446 190.915 136.362 191.335 136.876 191.103C137.247 190.931 137.267 190.866 137.17 189.99C137.112 189.48 136.949 188.73 136.807 188.326C136.146 186.463 136.211 184.734 136.986 183.564C137.549 182.712 138.878 181.701 139.62 181.562C139.962 181.501 140.912 181.122 141.732 180.726C142.551 180.331 143.273 180.009 143.334 180.009C143.395 180.009 143.685 179.825 143.978 179.601C144.276 179.377 144.59 179.193 144.68 179.193C144.769 179.193 145.275 178.912 145.805 178.574C146.335 178.231 146.987 177.836 147.256 177.697C147.525 177.554 148.341 177.13 149.071 176.751C149.801 176.372 150.755 175.752 151.191 175.373C151.627 174.994 152.389 174.488 152.883 174.252C153.376 174.015 154.33 173.42 155.003 172.931C155.676 172.437 156.291 172.03 156.377 172.026C156.458 172.022 157.046 171.589 157.682 171.068C158.314 170.542 159.239 169.84 159.732 169.502C160.226 169.163 160.748 168.768 160.89 168.617C162.778 166.648 166.37 163.537 166.757 163.537C166.827 163.537 167.153 163.097 167.479 162.559C167.805 162.02 168.139 161.58 168.217 161.58C168.47 161.58 170.741 159.26 172.131 157.584C172.873 156.687 173.746 155.676 174.064 155.338C174.386 155 174.724 154.592 174.814 154.433C174.908 154.274 175.291 153.732 175.674 153.222C176.057 152.712 176.367 152.227 176.367 152.137C176.367 152.048 176.461 151.917 176.579 151.844C176.697 151.77 176.966 151.456 177.183 151.143C177.399 150.829 177.631 150.531 177.704 150.482C177.88 150.36 179.629 147.689 179.629 147.542C179.629 147.477 179.894 147.033 180.216 146.552C180.542 146.071 180.868 145.524 180.942 145.333C181.015 145.141 181.464 144.407 181.941 143.702C182.418 142.996 182.944 142.087 183.111 141.684C183.278 141.28 183.478 140.84 183.559 140.705C183.641 140.571 184.228 139.396 184.868 138.096C185.504 136.795 186.116 135.621 186.226 135.486C186.336 135.352 186.629 134.655 186.882 133.937C187.135 133.219 187.506 132.302 187.706 131.898C187.901 131.495 188.113 130.871 188.175 130.512C188.236 130.153 188.582 128.943 188.941 127.821C189.288 126.733 189.634 125.648 189.977 124.56C190.193 123.887 190.413 122.904 190.474 122.374C190.535 121.844 190.808 120.853 191.082 120.173C191.355 119.492 191.713 118.126 191.881 117.143C192.048 116.157 192.297 115.06 192.439 114.705C192.619 114.257 192.745 113.119 192.843 111.032C192.924 109.368 193.075 106.832 193.181 105.397C193.442 101.793 193.14 90.5481 192.757 89.6185C192.598 89.2312 191.73 89.2516 191.208 89.6593ZM122.761 91.4655C122.565 91.5388 122.272 91.7998 122.109 92.0485C121.827 92.4766 121.815 93.6875 121.778 117.376L121.742 142.254L122.133 142.731L122.529 143.213L128.122 143.176L133.72 143.139L134.099 142.711L134.483 142.287L134.397 117.482C134.352 103.84 134.25 92.4603 134.169 92.1953C134.075 91.8732 133.883 91.6775 133.594 91.6C132.954 91.4288 123.181 91.3064 122.761 91.4655ZM84.7824 99.4322C83.9669 99.5667 83.4165 99.9826 82.5033 101.161C82.0507 101.74 81.749 102.335 81.6471 102.833C81.4758 103.681 81.5329 144.998 81.7082 145.838C81.9202 146.87 83.2534 148.668 83.8202 148.688C83.9099 148.692 84.2768 148.863 84.6356 149.063L85.2839 149.43H103.223L104.491 148.802C106.204 147.958 106.591 147.428 107.398 144.823C107.504 144.476 107.541 137.26 107.504 123.948L107.451 103.603L107.044 102.69C106.424 101.304 106.163 100.981 105.058 100.239C104.157 99.636 103.888 99.5423 102.734 99.4322C101.164 99.2773 85.7242 99.2773 84.7824 99.4322ZM88.9533 106.025C88.517 106.168 88.3376 106.347 88.1909 106.783C88.0522 107.203 87.9992 112.031 87.987 124.898L87.9666 142.446L88.3091 142.878L88.6516 143.314H94.0089C96.9567 143.314 99.5457 143.249 99.7618 143.164C99.9779 143.082 100.239 142.809 100.345 142.552C100.487 142.21 100.524 137.562 100.492 124.344L100.451 106.592L99.986 106.192L99.5253 105.797L94.5226 105.817C91.2365 105.829 89.3284 105.899 88.9533 106.025ZM51.3661 116.907C50.09 117.119 49.4173 117.498 48.9158 118.293C48.6671 118.693 48.4021 119.015 48.3246 119.015C48.2512 119.015 48.0596 119.435 47.9006 119.952C47.6356 120.817 47.6111 121.84 47.6193 133.04C47.6315 146.148 47.6233 146.009 48.5081 147.355C49.1319 148.305 49.5233 148.574 50.9543 149.035L52.1775 149.43H60.7395C69.2811 149.43 69.3015 149.43 70.1169 149.063C72.1432 148.146 72.6692 147.632 73.2522 146.005C73.5213 145.247 73.5376 144.358 73.4928 133.04C73.4479 121.192 73.4357 120.866 73.1054 119.948C72.7548 118.982 71.6947 117.739 70.8508 117.306C69.8519 116.793 68.6817 116.731 60.4459 116.752C55.8999 116.76 51.8105 116.829 51.3661 116.907ZM15.153 117.551C14.9736 117.616 14.7412 117.845 14.6433 118.057L13.991 119.422C13.7382 119.961 13.3713 120.637 13.1797 120.927C12.988 121.212 12.7801 121.722 12.7189 122.052C12.6537 122.382 12.352 123.198 12.0462 123.866C11.7363 124.535 11.402 125.42 11.296 125.84C11.1941 126.256 11.0065 126.753 10.8842 126.945C10.7619 127.136 10.5254 127.768 10.3583 128.343C10.1952 128.922 9.79155 129.897 9.46946 130.508C9.14329 131.12 8.87827 131.744 8.87827 131.89C8.87827 132.041 8.69073 132.412 8.46648 132.722C7.88345 133.509 7.62659 134.422 7.89569 134.748C8.26671 135.193 10.4398 134.936 11.8057 134.292C12.352 134.031 12.8576 133.937 13.7138 133.937C14.8105 133.937 14.941 133.978 15.8298 134.589C16.9429 135.356 17.9948 136.795 18.5819 138.361C18.957 139.356 19.4503 140.359 19.6501 140.542C19.699 140.587 19.8784 140.99 20.0456 141.439C20.3962 142.385 20.6449 142.809 21.4073 143.759C21.7131 144.142 22.2309 144.986 22.5612 145.634C22.8914 146.287 23.45 147.253 23.8047 147.787C24.1635 148.317 24.5263 148.867 24.616 149.01C25.1094 149.777 25.4641 150.266 25.7576 150.576C25.937 150.763 26.2102 151.134 26.3611 151.399C26.516 151.66 26.9726 152.317 27.3803 152.855C27.784 153.393 28.2447 154.07 28.4037 154.355C28.5627 154.645 29.1376 155.342 29.6758 155.905C30.218 156.471 30.9845 157.372 31.3882 157.911C31.7877 158.449 32.8518 159.623 33.757 160.52C34.6621 161.417 35.5591 162.412 35.7466 162.726C35.9382 163.044 36.5865 163.7 37.1899 164.189C37.7893 164.679 38.3927 165.188 38.5313 165.327C38.6659 165.461 39.0165 165.722 39.306 165.902C39.5995 166.081 40.3538 166.705 40.9857 167.288C42.2415 168.446 42.4127 168.585 43.8601 169.628C44.3983 170.016 45.1648 170.648 45.5644 171.031C46.2493 171.687 46.8772 172.16 48.0922 172.914C48.3776 173.094 48.8995 173.465 49.2542 173.742C49.6048 174.015 50.1348 174.337 50.4243 174.456C50.7179 174.574 51.2275 174.916 51.5578 175.218C51.888 175.52 52.8094 176.115 53.6045 176.543C54.3995 176.967 55.3944 177.518 55.8143 177.762C56.2342 178.007 56.8377 178.337 57.1516 178.496C57.4655 178.655 57.7713 178.855 57.8325 178.936C57.8896 179.018 58.1097 179.112 58.3217 179.144C58.5297 179.177 58.9578 179.369 59.2717 179.572C60.1972 180.172 62.88 181.432 63.675 181.64C64.0787 181.746 64.4986 181.909 64.6046 181.994C65.0368 182.349 68.3189 183.923 68.6369 183.931C68.8204 183.935 69.2689 184.049 69.6276 184.188C71.6254 184.962 73.7659 185.611 75.4783 185.969C76.5465 186.19 77.6596 186.52 77.9532 186.703C78.2508 186.883 79.0295 187.144 79.6859 187.278C80.3424 187.413 81.6144 187.698 82.5114 187.918C83.4084 188.134 84.656 188.359 85.2839 188.412C87.2531 188.591 90.4496 188.987 91.8073 189.219C93.6257 189.533 102 189.688 106.999 189.5C110.472 189.37 111.198 189.3 111.728 189.04C112.287 188.766 112.352 188.673 112.336 188.163C112.323 187.849 112.189 187.152 112.034 186.614C111.83 185.908 111.773 185.321 111.838 184.522C112.018 182.357 111.712 182.161 108.748 182.524C105.335 182.94 96.7528 182.806 93.8458 182.288C93.3525 182.202 91.4199 182.019 89.5526 181.884C86.9922 181.697 85.9892 181.562 85.4755 181.33C84.5296 180.91 84.395 180.873 82.1852 180.502C80.216 180.172 78.3527 179.666 76.3957 178.936C75.8127 178.716 74.6751 178.362 73.8679 178.149C73.0606 177.937 71.9231 177.595 71.34 177.391C68.7062 176.474 67.6421 176.066 67.2629 175.834C67.0387 175.695 66.2314 175.287 65.469 174.929C61.5794 173.094 59.9526 172.254 59.288 171.748C58.8885 171.443 58.391 171.149 58.1831 171.1C57.9752 171.047 57.8039 170.937 57.8039 170.86C57.8039 170.778 57.6735 170.713 57.5185 170.713C57.3636 170.713 56.7561 170.378 56.1731 169.975C55.5901 169.571 54.8195 169.098 54.4607 168.923C54.1019 168.748 53.2335 168.124 52.5281 167.537C51.8228 166.954 50.9421 166.338 50.5711 166.171C50.2001 166 49.564 165.539 49.1604 165.135C48.7568 164.736 48.0229 164.149 47.5295 163.827C47.0362 163.508 46.3268 162.966 45.9517 162.62C44.6062 161.376 42.8694 159.815 42.319 159.358C42.0132 159.101 41.4261 158.526 41.0143 158.082C40.0154 156.993 38.8086 155.79 38.4457 155.521C38.2867 155.399 37.8708 154.934 37.5324 154.486C37.1899 154.037 36.6191 153.34 36.2603 152.936C35.9056 152.533 35.237 151.689 34.7763 151.061C34.3155 150.433 33.5327 149.451 33.0312 148.872C32.1139 147.812 31.7103 147.192 31.7103 146.829C31.7103 146.719 31.5635 146.495 31.3841 146.332C31.2047 146.168 30.797 145.573 30.483 145.011C30.165 144.444 29.8348 143.934 29.741 143.877C29.4964 143.726 28.0775 141.565 27.8044 140.925C27.7228 140.734 27.5923 140.55 27.519 140.518C27.4456 140.485 26.9889 139.653 26.5078 138.666C26.0226 137.68 25.3662 136.481 25.0482 136.008C24.5671 135.291 24.457 134.96 24.3999 134.092C24.3062 132.616 24.4652 131.984 25.0727 131.401C25.7943 130.712 26.2143 130.516 27.6902 130.194C29.2558 129.848 29.9082 129.587 30.3199 129.13C30.6094 128.808 30.6176 128.739 30.4015 128.351C30.1772 127.956 29.8959 127.744 28.7176 127.079C28.4648 126.937 27.6413 126.329 26.8911 125.73C26.1409 125.13 25.248 124.437 24.9096 124.189C24.5671 123.94 23.5927 123.206 22.7405 122.558C21.8884 121.909 20.9181 121.233 20.5797 121.057C20.2453 120.882 19.7439 120.495 19.4666 120.201C19.1894 119.908 18.8713 119.667 18.7572 119.667C18.643 119.667 18.4188 119.52 18.2557 119.341C18.0926 119.161 17.8806 119.015 17.7787 119.015C17.6808 119.015 17.2323 118.697 16.7838 118.309C15.842 117.494 15.6056 117.38 15.153 117.551ZM54.4525 123.43C54.1467 123.765 54.1345 124.107 54.1345 133.313C54.1345 142.646 54.1427 142.858 54.4607 143.09C54.9092 143.416 66.3088 143.355 66.6432 143.021C66.8103 142.854 66.8674 140.95 66.9041 133.97C66.9326 129.11 66.9082 124.816 66.8552 124.437C66.6758 123.198 66.5779 123.182 60.2421 123.129C54.8236 123.08 54.7624 123.084 54.4525 123.43Z" fill="url(#paint0_linear_681_9)"/>
<path d="M260.36 164.6L270.08 138.92L245.6 77H257.6L272.96 117.8C273.52 119.16 274.04 120.8 274.52 122.72C275 124.56 275.4 126.12 275.72 127.4C276.04 126.12 276.44 124.56 276.92 122.72C277.4 120.8 277.88 119.16 278.36 117.8L292.76 77H304.4L271.88 164.6H260.36ZM343.593 144.2C338.153 144.2 333.793 142.76 330.513 139.88C327.233 136.92 325.593 132.92 325.593 127.88L327.753 130.4H325.593V143H314.793V55.4H325.593V74.6L325.353 89.6H327.753L325.593 92.12C325.593 87.16 327.233 83.2 330.513 80.24C333.873 77.28 338.233 75.8 343.593 75.8C350.233 75.8 355.553 78 359.553 82.4C363.553 86.8 365.553 92.8 365.553 100.4V119.72C365.553 127.24 363.553 133.2 359.553 137.6C355.553 142 350.233 144.2 343.593 144.2ZM339.993 134.84C344.553 134.84 348.153 133.48 350.793 130.76C353.433 128.04 354.753 124.12 354.753 119V101C354.753 95.88 353.433 91.96 350.793 89.24C348.153 86.52 344.553 85.16 339.993 85.16C335.593 85.16 332.073 86.56 329.433 89.36C326.873 92.16 325.593 96.04 325.593 101V119C325.593 123.96 326.873 127.84 329.433 130.64C332.073 133.44 335.593 134.84 339.993 134.84ZM411.706 143C406.026 143 401.586 141.48 398.386 138.44C395.266 135.4 393.706 131.12 393.706 125.6V86.84H375.106V77H393.706V58.4H404.506V77H430.906V86.84H404.506V125.6C404.506 130.64 406.906 133.16 411.706 133.16H429.706V143H411.706ZM469.739 144.2C464.459 144.2 459.819 143.2 455.819 141.2C451.899 139.2 448.859 136.32 446.699 132.56C444.539 128.72 443.459 124.2 443.459 119V101C443.459 95.72 444.539 91.2 446.699 87.44C448.859 83.68 451.899 80.8 455.819 78.8C459.819 76.8 464.459 75.8 469.739 75.8C477.339 75.8 483.459 77.84 488.099 81.92C492.739 86 495.179 91.56 495.419 98.6H484.619C484.379 94.36 482.939 91.12 480.299 88.88C477.739 86.56 474.219 85.4 469.739 85.4C465.019 85.4 461.259 86.76 458.459 89.48C455.659 92.12 454.259 95.92 454.259 100.88V119C454.259 123.96 455.659 127.8 458.459 130.52C461.259 133.24 465.019 134.6 469.739 134.6C474.219 134.6 477.739 133.44 480.299 131.12C482.939 128.8 484.379 125.56 484.619 121.4H495.419C495.179 128.44 492.739 134 488.099 138.08C483.459 142.16 477.339 144.2 469.739 144.2Z" fill="#053904"/>
<defs>
<linearGradient id="paint0_linear_681_9" x1="131" y1="17" x2="55.5" y2="199" gradientUnits="userSpaceOnUse">
<stop stop-color="#038200"/>
<stop offset="1" stop-color="#00DB8A"/>
</linearGradient>
</defs>
</svg>
