<svg width="506" height="199" viewBox="0 0 506 199" fill="none" xmlns="http://www.w3.org/2000/svg">
<path fill-rule="evenodd" clip-rule="evenodd" d="M62.0622 0.0864115C61.1 0.286191 60.4395 0.726523 59.4977 1.79473C58.2786 3.17688 57.7812 4.7792 58.0951 6.27958C58.6415 8.85634 58.9799 10.1039 59.2857 10.6951C59.8198 11.7185 59.5915 12.3953 58.5273 12.9498C58.0788 13.1822 57.6874 13.4309 57.6589 13.4961C57.6263 13.5614 57.5162 13.6184 57.4102 13.6184C57.1492 13.6184 55.2126 14.4502 54.6948 14.7845C53.9895 15.2371 51.5676 16.554 51.4413 16.554C51.3719 16.554 51.0132 16.7741 50.6421 17.0432C50.2711 17.3123 49.9001 17.5325 49.8186 17.5325C49.737 17.5325 49.3497 17.8016 48.9624 18.1277C48.571 18.4539 48.0002 18.829 47.6944 18.9554C47.3845 19.0859 46.8993 19.3713 46.618 19.5874C46.3326 19.8035 46.0554 19.9788 46.0024 19.9788C45.9004 19.9788 44.9994 20.5659 44.5794 20.9084C44.4449 21.0184 44.0453 21.3528 43.6865 21.6545C43.3278 21.9603 42.7773 22.3476 42.4634 22.5188C42.1495 22.6941 41.3789 23.2364 40.751 23.7297C40.1231 24.2231 39.3974 24.7368 39.1405 24.8713C38.8796 25.0018 38.3292 25.4707 37.9174 25.911C37.5015 26.3473 36.8696 26.9221 36.5108 27.1871C34.8799 28.3858 27.7327 35.4148 26.2812 37.2455C25.739 37.9304 24.7727 39.0639 24.1367 39.7651C23.4966 40.4664 22.9094 41.1636 22.832 41.3144C22.7545 41.4653 22.6077 41.661 22.5058 41.7507C22.4039 41.8404 22.1266 42.2114 21.8902 42.5783C21.6537 42.9412 21.0543 43.7199 20.5529 44.3071C20.0554 44.8942 19.4765 45.7341 19.2686 46.1744C19.0606 46.6106 18.5999 47.4016 18.2411 47.9276C16.6429 50.2882 16.0313 51.2463 15.8071 51.7478C15.6725 52.0455 15.4238 52.4654 15.2526 52.6856C15.0813 52.9017 14.7022 53.6682 14.4127 54.3857C14.1232 55.1074 13.8215 55.6945 13.744 55.6945C13.6666 55.6945 13.4912 55.9351 13.3526 56.2245C13.2181 56.5181 12.9245 57.0033 12.7003 57.305C12.476 57.6108 12.1703 58.2713 12.0153 58.7727C11.8645 59.2783 11.6117 59.8817 11.4527 60.11C11.1673 60.5341 10.4742 62.275 9.74844 64.4033C9.53643 65.023 9.26326 65.6468 9.13687 65.7895C9.01455 65.9322 8.71692 66.7313 8.48452 67.559C8.24805 68.3907 7.93411 69.3448 7.78326 69.6791C7.11053 71.1754 6.53565 73.0753 6.08717 75.2648C5.81807 76.5654 5.45929 78.1065 5.28397 78.6896C5.10866 79.2726 4.88441 80.5936 4.79064 81.621C4.69278 82.6525 4.50932 83.8634 4.38293 84.3119C2.69907 90.2523 2.56452 105.607 4.13422 113.317C4.39108 114.589 4.68055 116.517 4.7784 117.606C4.87218 118.69 5.06788 119.861 5.21058 120.203C5.52045 120.945 5.45113 121.736 4.94964 123.212C4.40738 124.802 3.1394 127.799 2.80507 128.292C2.64199 128.533 2.50744 128.83 2.50744 128.961C2.50744 129.091 2.3362 129.519 2.12827 129.915C1.67163 130.767 1.11713 132.337 0.949971 133.234C0.88066 133.588 0.640111 134.285 0.415868 134.783C0.0856201 135.5 0 135.945 0 136.94C0 138.024 0.0611573 138.277 0.440331 138.852C0.680882 139.215 0.876583 139.586 0.876583 139.671C0.876583 140.046 1.85102 140.813 2.75207 141.147C4.74987 141.889 4.80694 141.893 6.25841 141.498C7.46932 141.168 8.59868 140.98 10.9063 140.735C11.9175 140.629 12.1336 140.797 13.0958 142.415C13.4831 143.068 13.85 143.598 13.9112 143.598C13.9724 143.598 14.1558 143.965 14.3148 144.417C14.4779 144.866 14.7959 145.51 15.0243 145.844C15.2526 146.178 15.5706 146.745 15.7378 147.104C15.9008 147.463 16.1781 147.94 16.3493 148.164C16.9038 148.894 19.4683 152.877 19.6314 153.256C19.8149 153.697 20.3408 154.41 21.67 156.025C22.2122 156.681 22.7912 157.435 22.9665 157.704C23.2478 158.149 24.5566 159.715 25.8898 161.211C26.1712 161.525 26.5136 161.986 26.6482 162.234C26.9254 162.728 29.3962 165.288 29.6 165.288C29.6693 165.288 30.1831 165.822 30.7416 166.47C31.3002 167.119 32.2012 168.048 32.7476 168.529C33.2939 169.01 34.4355 170.075 35.2876 170.894C36.1398 171.714 37.0204 172.509 37.2447 172.664C37.9337 173.132 39.5809 174.409 40.1068 174.873C41.2158 175.864 41.9619 176.435 43.3604 177.36C44.1676 177.894 45.3419 178.698 45.9697 179.142C46.5976 179.587 47.4049 180.088 47.7637 180.259C48.1225 180.426 48.5179 180.687 48.6403 180.834C48.7626 180.985 48.9257 181.107 49.0031 181.107C49.2967 181.107 50.9031 181.955 51.7593 182.563C52.5258 183.109 58.0748 186 58.3561 186C58.4091 186 58.935 186.293 59.5262 186.652C60.1174 187.011 60.676 187.305 60.7738 187.305C60.8676 187.305 61.4302 187.517 62.0214 187.777C64.1823 188.727 65.5889 189.245 66.9222 189.588C67.6723 189.779 68.5652 190.077 68.9077 190.252C69.2502 190.428 70.0493 190.68 70.6894 190.815C71.3255 190.945 72.4059 191.243 73.0909 191.475C73.7717 191.704 74.8073 192.001 75.3863 192.136C75.9652 192.27 76.6421 192.487 76.8948 192.613C77.3678 192.862 77.7347 192.943 80.7885 193.506C81.82 193.697 83.0187 193.954 83.455 194.081C83.8912 194.207 85.5425 194.387 87.1244 194.48C88.7063 194.574 90.5533 194.758 91.226 194.884C93.5092 195.316 96.0288 195.5 99.4047 195.483C104.012 195.463 109.5 195.182 110.878 194.9C111.506 194.77 113.194 194.619 114.629 194.558C116.064 194.497 117.678 194.342 118.217 194.207C122.881 193.053 124.157 192.976 126.004 193.755C126.567 193.991 127.464 194.281 128.002 194.403C129.274 194.692 130.86 195.345 132.059 196.07C132.589 196.392 133.473 196.743 134.04 196.865C134.603 196.98 135.341 197.265 135.679 197.493C136.649 198.154 137.926 198.464 139.662 198.468C141.583 198.468 142.215 198.256 143.185 197.281C144.217 196.246 144.755 195.023 144.771 193.665C144.783 192.535 144.041 189.274 143.638 188.695C143.515 188.52 143.413 187.989 143.413 187.525C143.413 186.783 143.47 186.636 143.862 186.367C144.111 186.196 144.567 185.959 144.881 185.837C145.195 185.719 146.055 185.303 146.793 184.915C147.531 184.528 148.559 184.039 149.081 183.827C149.602 183.615 150.483 183.097 151.038 182.673C151.592 182.253 152.522 181.69 153.101 181.429C153.684 181.164 154.218 180.85 154.291 180.732C154.36 180.614 154.907 180.247 155.498 179.921C156.089 179.595 156.668 179.211 156.782 179.073C156.896 178.938 157.08 178.824 157.19 178.824C157.3 178.824 157.528 178.669 157.7 178.478C158.03 178.111 159.775 176.932 160.668 176.476C160.965 176.321 161.341 176.072 161.504 175.921C162.845 174.665 163.473 174.119 165.185 172.741C167.338 171.008 168.908 169.646 170.404 168.219C172.251 166.458 176.275 162.251 176.883 161.443C177.217 161.003 177.837 160.273 178.257 159.825C179.296 158.712 183.006 153.709 183.753 152.404C184.421 151.242 184.833 150.602 186.06 148.792C186.937 147.499 187.463 146.57 188.258 144.902C188.535 144.319 188.845 143.695 188.951 143.516C189.481 142.607 191.034 139.317 191.034 139.096C191.034 139.031 191.206 138.754 191.418 138.477C191.626 138.199 192.033 137.347 192.323 136.585C192.612 135.823 192.946 134.979 193.069 134.709C193.187 134.44 193.375 133.898 193.481 133.503C193.583 133.107 193.77 132.63 193.892 132.443C194.015 132.255 194.194 131.733 194.292 131.285C194.39 130.836 194.716 129.845 195.014 129.083C195.919 126.767 196.534 124.704 196.983 122.478C197.215 121.312 197.546 119.918 197.717 119.379C197.888 118.841 198.071 117.85 198.133 117.178C198.19 116.505 198.341 115.494 198.467 114.927C199.344 111.033 199.678 106.585 199.67 98.9122C199.666 91.9403 199.494 89.1882 198.862 86.0284C198.585 84.6381 198.32 83.1336 198.275 82.6851C198.23 82.2367 198.129 81.2459 198.055 80.4835C197.978 79.7211 197.79 78.7507 197.635 78.3226C197.37 77.5928 197.37 77.5031 197.639 76.6918C197.794 76.2229 198.027 75.436 198.153 74.9427C198.283 74.4534 198.483 73.9397 198.597 73.8011C198.822 73.532 199.568 71.8563 199.763 71.1876C199.829 70.9634 199.955 70.6861 200.049 70.572C200.265 70.3029 201.215 68.0197 201.729 66.5397C201.949 65.9118 202.312 65.0271 202.536 64.5704C203.005 63.6327 203.192 62.4177 203.037 61.3658C202.891 60.4036 201.614 58.4017 200.974 58.1367C200.709 58.0266 200.493 57.8758 200.493 57.8024C200.493 57.5863 198.879 57.1623 198.059 57.1623C197.077 57.1623 194.488 57.5863 194.243 57.7901C194.137 57.8758 193.444 58.0755 192.702 58.2346C190.916 58.6178 190.459 58.4303 189.799 57.0522C189.55 56.5303 189.257 55.9921 189.143 55.8576C189.032 55.723 188.747 55.0992 188.511 54.4714C188.278 53.8435 187.911 53.0729 187.699 52.759C187.487 52.445 186.892 51.491 186.374 50.6388C185.86 49.7867 185.334 48.9795 185.216 48.8449C184.58 48.1436 183.728 46.9042 183.532 46.3986C183.41 46.0847 183.084 45.5547 182.811 45.2244C182.105 44.3764 181.755 43.9034 180.674 42.3215C180.157 41.5591 179.166 40.3115 178.481 39.549C177.796 38.7866 176.895 37.7225 176.479 37.1843C176.063 36.6461 175.403 35.9 175.019 35.5249C173.584 34.1305 172.667 33.2091 171.941 32.4344C171.533 31.9982 170.653 31.1624 169.984 30.5793C169.319 29.9963 168.333 29.0708 167.795 28.5285C167.256 27.9822 166.523 27.3584 166.164 27.1423C165.805 26.9262 165.145 26.384 164.696 25.9355C164.248 25.4829 163.412 24.749 162.841 24.3005C162.27 23.8521 161.667 23.3628 161.508 23.2119C161.345 23.0611 160.863 22.7431 160.435 22.5025C160.007 22.266 159.286 21.7605 158.833 21.3813C158.381 21.0021 157.569 20.4069 157.031 20.0603C156.493 19.7138 156.016 19.3794 155.971 19.3142C155.926 19.253 155.633 19.094 155.319 18.9595C155.005 18.829 154.43 18.4539 154.038 18.1277C153.651 17.8016 153.264 17.5325 153.186 17.5325C153.105 17.5325 152.583 17.2552 152.02 16.9209C151.05 16.342 148.926 15.2697 145.289 13.5247C144.392 13.0925 143.475 12.5828 143.25 12.3871C143.026 12.1914 142.292 11.8653 141.619 11.6655C140.951 11.4657 140.119 11.1599 139.777 10.9846C139.149 10.6625 137.991 10.2385 135.422 9.39044C134.66 9.13766 133.779 8.77887 133.465 8.5954C133.151 8.40785 132.454 8.14691 131.916 8.00829C131.378 7.86967 129.506 7.38857 127.757 6.94008C126.008 6.48752 123.741 5.96565 122.722 5.7781C121.703 5.59463 120.675 5.36631 120.439 5.27661C120.202 5.18691 119.313 4.97082 118.461 4.79143C114.144 3.89446 109.573 3.58867 100.685 3.59683C92.8079 3.60498 88.3434 3.82922 86.468 4.3144C85.8115 4.48157 84.8697 4.66911 84.3764 4.72619C83.8831 4.78327 82.8189 5.02383 82.0117 5.2603C80.0505 5.82702 78.0038 5.87187 77.2822 5.36223C76.5768 4.86074 73.7799 3.70283 72.7647 3.49082C72.2877 3.38889 71.5701 3.11165 71.1665 2.8711C70.7628 2.62647 69.8128 2.26768 69.0545 2.0679C68.2921 1.86404 67.5582 1.60719 67.4236 1.49302C66.9181 1.08123 64.3576 0.0986432 63.5748 0.0211773C63.1304 -0.0236704 62.4495 0.00486875 62.0622 0.0864115ZM65.8376 8.33039C65.6745 8.76256 65.8988 10.2099 66.3432 11.5595C66.7958 12.9457 66.8773 14.2096 66.5715 15.1025C66.2127 16.1544 65.6827 16.6314 63.7909 17.6059C62.7798 18.1237 61.7686 18.6741 61.5444 18.829C61.3202 18.9839 60.8064 19.2367 60.4028 19.3917C59.9992 19.5507 59.3468 19.8565 58.9554 20.0725C58.564 20.2886 58.1033 20.468 57.9361 20.468C57.769 20.468 57.6304 20.5414 57.6304 20.6311C57.6304 20.7208 57.4999 20.7942 57.345 20.7983C57.19 20.7983 56.8761 20.9451 56.6518 21.1204C56.4276 21.2957 56.183 21.4425 56.1055 21.4425C56.028 21.4465 55.4899 21.7768 54.915 22.1804C54.336 22.5841 53.8305 22.9143 53.7897 22.9143C53.7489 22.9143 52.8601 23.428 51.8164 24.0559C50.7767 24.6838 49.8553 25.1975 49.7696 25.1975C49.684 25.1975 49.1948 25.5685 48.677 26.0252C47.727 26.861 47.6128 26.9384 46.3938 27.6112C46.0187 27.815 45.5783 28.1086 45.4193 28.2635C44.5142 29.1238 42.0272 31.1909 41.5012 31.5171C41.2688 31.6638 40.9671 31.9044 40.8325 32.0512C40.698 32.202 40.1476 32.6872 39.6094 33.1316C39.0712 33.5801 37.9215 34.6728 37.0571 35.5657C34.0115 38.701 31.5693 41.2655 31.239 41.6691C30.7376 42.2807 28.1486 45.2896 27.802 45.6647C27.6349 45.8441 27.3005 46.3538 27.0559 46.7982C26.5911 47.6462 26.3057 48.0499 25.2946 49.273C24.9562 49.6807 24.5158 50.3127 24.3161 50.6755C23.8513 51.5195 23.7493 51.6867 23.044 52.7671C22.7219 53.2564 22.3305 53.9862 22.1715 54.3898C22.0125 54.7935 21.829 55.1604 21.7556 55.2052C21.5518 55.3357 20.5365 56.7056 20.2471 57.2438C20.1044 57.5129 19.823 58.153 19.6273 58.6627C19.4316 59.1764 19.1707 59.6819 19.0443 59.7839C18.9179 59.8899 18.816 60.0407 18.816 60.1182C18.816 60.2854 18.2615 61.5737 17.8742 62.2995C17.3441 63.3024 17.2626 63.4451 17.0832 63.6857C16.9854 63.8202 16.6021 64.7009 16.2392 65.6468C15.8723 66.5886 15.4605 67.5794 15.3219 67.8484C15.1792 68.1135 15.065 68.4274 15.065 68.5416C15.065 68.7821 14.0906 71.7666 13.6666 72.8185C13.5076 73.2221 13.2344 73.7481 13.0591 73.9845C12.7492 74.4126 12.2681 76.4267 11.9582 78.6039C11.8685 79.2277 11.6565 80.1818 11.4935 80.724C11.3263 81.2622 11.1347 82.2571 11.0694 82.9257C11.0001 83.5984 10.8411 84.4424 10.7106 84.8012C10.572 85.1844 10.3763 86.8887 10.2458 88.8824C10.1154 90.766 9.97268 92.454 9.92783 92.6334C9.70767 93.4733 9.54458 100.131 9.69136 102.337C9.77698 103.638 9.91968 105.851 10.0094 107.254C10.095 108.657 10.2132 109.92 10.2703 110.067C10.4089 110.434 11.0205 110.393 11.84 109.961C12.4516 109.639 12.7818 109.594 14.5595 109.59C17.2626 109.59 17.1525 109.761 16.7978 106.112C16.2148 100.074 16.6837 90.4969 17.8253 85.1314C17.919 84.6829 18.0699 83.6759 18.1555 82.8972C18.2411 82.1144 18.4287 81.25 18.5714 80.9768C18.7141 80.6996 19.0484 79.4316 19.3216 78.1555C19.8475 75.6766 20.5447 73.426 21.4865 71.1876C21.8086 70.4252 22.0736 69.6791 22.0736 69.5241C22.0777 69.3733 22.1429 69.2102 22.2245 69.1572C22.306 69.1083 22.5996 68.5212 22.8768 67.8566C23.1541 67.188 23.5944 66.1809 23.8513 65.6142C24.1122 65.0475 24.3813 64.3992 24.4465 64.1749C24.5158 63.9507 24.6708 63.6938 24.7931 63.6041C24.9195 63.5145 25.4862 62.5237 26.057 61.4025C27.9121 57.7738 28.4544 56.832 29.1026 56.1348C29.4532 55.7597 29.9425 55.0503 30.1912 54.5611C30.4358 54.0718 31.0066 53.1789 31.4551 52.5796C31.9036 51.9761 32.3806 51.3197 32.5152 51.1159C32.6497 50.912 32.984 50.4839 33.2531 50.1618C33.5263 49.8397 33.9626 49.2852 34.2194 48.9265C34.4804 48.5677 34.8065 48.1518 34.9492 48.005C35.0919 47.8582 35.4996 47.316 35.8584 46.7982C36.8002 45.4405 40.9549 41.0902 42.7814 39.549C43.2625 39.1454 44.0657 38.4237 44.5672 37.9426C45.3826 37.1639 46.6302 36.1487 47.621 35.4678C48.3549 34.9582 50.7237 33.2009 51.1885 32.8177C51.4576 32.5975 52.0569 32.2183 52.5217 31.9737C52.9906 31.7332 53.4594 31.4233 53.5736 31.2888C53.6837 31.1583 53.9854 30.9381 54.2422 30.8036C54.4991 30.6731 54.8375 30.4529 54.9884 30.3184C56.1218 29.3276 57.7567 28.2961 58.2012 28.2961C58.3072 28.2961 58.5273 28.1494 58.6904 27.97C58.8535 27.7906 59.0451 27.6438 59.1185 27.6438C59.4895 27.6438 61.4017 26.6245 62.1641 26.0252C63.1753 25.222 66.3391 23.8928 67.232 23.8928C67.6397 23.8928 68.1371 24.0844 68.7773 24.484C69.5845 24.9855 69.7884 25.222 70.1839 26.0904C70.4407 26.649 70.7424 27.5745 70.8525 28.1494C71.0441 29.1564 71.4029 30.0901 71.5946 30.0901C71.9656 30.0901 72.8014 29.4703 73.2458 28.8669C73.5353 28.4714 73.7758 28.1127 73.7758 28.0678C73.7758 28.023 74.0368 27.709 74.3589 27.3665C74.6769 27.0281 75.1702 26.4166 75.4515 26.0129C75.7328 25.6093 76.1854 25.0507 76.4586 24.7694C76.7318 24.4922 77.0824 24.0885 77.2373 23.8724C78.0487 22.7431 79.333 21.1244 80.0546 20.3172C82.1584 17.9687 83.1206 16.3909 83.0391 15.4165C82.9942 14.8864 82.9208 14.813 82.0932 14.4828C81.0535 14.071 81.0046 14.0506 79.7937 13.647C79.2922 13.4798 78.5502 13.1129 78.1424 12.8315C77.7306 12.5502 77.0416 12.2404 76.6054 12.1384C76.1691 12.0365 75.4474 11.8123 74.999 11.6369C74.5505 11.4616 73.5964 11.0947 72.8789 10.8215C70.718 9.99386 69.6335 9.51275 69.3277 9.24774C68.8873 8.86449 66.914 8.07353 66.3962 8.07353C66.1312 8.07353 65.8947 8.17953 65.8376 8.33039ZM92.7753 10.2996C91.4747 10.4831 91.0833 10.6014 90.8468 10.8827C90.5329 11.2578 90.5329 11.2904 90.9813 12.9661C91.1404 13.5491 91.2749 14.5195 91.2871 15.1229C91.3034 15.8649 91.3931 16.3012 91.5603 16.4684C91.7764 16.6844 92.9792 16.7252 100.444 16.7701C107.522 16.8149 109.41 16.8761 110.878 17.1003C111.864 17.2512 113.463 17.4876 114.429 17.6263C115.399 17.7649 116.631 18.0258 117.169 18.2011C117.707 18.3765 119.081 18.6945 120.219 18.9065C121.36 19.1185 123.615 19.673 125.229 20.1459C126.844 20.6148 128.634 21.1367 129.205 21.2998C129.779 21.4669 130.424 21.7156 130.64 21.8583C130.852 21.997 131.557 22.2987 132.205 22.5229C132.854 22.7512 133.999 23.1508 134.754 23.4117C135.512 23.6767 136.246 23.9948 136.384 24.1211C136.527 24.2516 137.151 24.5452 137.771 24.7776C138.933 25.2138 140.478 26.0252 141.049 26.494C141.228 26.6408 141.778 26.9425 142.272 27.1586C142.765 27.3747 143.434 27.7172 143.76 27.9129C144.086 28.1127 144.616 28.3858 144.938 28.5204C145.26 28.6549 145.619 28.8465 145.733 28.9403C145.909 29.0912 147.458 30.1308 148.294 30.6609C148.436 30.7506 148.771 30.9748 149.04 31.1624C149.309 31.3499 149.859 31.6802 150.263 31.8962C150.667 32.1123 151.4 32.6464 151.894 33.0786C152.387 33.5108 153.141 34.0897 153.565 34.3711C153.989 34.6483 154.34 34.9215 154.34 34.9745C154.34 35.0316 154.829 35.3985 155.429 35.794C156.028 36.1854 156.644 36.6257 156.799 36.7643C156.954 36.907 157.475 37.3881 157.957 37.8366C158.442 38.2851 159.734 39.4226 160.827 40.3645C161.924 41.3063 162.821 42.1299 162.821 42.1951C162.821 42.2603 163.155 42.664 163.567 43.0921C163.978 43.5202 164.427 44.0543 164.566 44.2785C164.7 44.5028 165.108 44.9268 165.467 45.2163C165.825 45.5098 166.331 46.0235 166.592 46.3579L167.35 47.3364C167.505 47.5361 167.799 47.8909 168.003 48.1233C168.59 48.7919 170.64 51.5277 171.374 52.6244C171.599 52.9506 171.855 53.2686 171.945 53.3257C172.039 53.3828 172.328 53.8598 172.589 54.3776C172.846 54.8995 173.388 55.7312 173.788 56.2245C174.192 56.7179 174.795 57.6638 175.129 58.3243C175.464 58.9848 175.839 59.6412 175.965 59.7839C176.092 59.9266 176.194 60.0937 176.194 60.1549C176.194 60.216 176.369 60.5422 176.585 60.8765C176.801 61.2109 177.062 61.7613 177.168 62.0956C177.274 62.434 177.641 63.1312 177.983 63.6449C179.031 65.2187 179.039 67.2817 178 68.1175C176.948 68.9615 176.76 69.0634 175.884 69.2388C173.022 69.8218 172.443 70.0705 172.443 70.7147C172.443 71.0938 173.197 71.893 173.886 72.2436C174.188 72.3945 174.885 72.8429 175.435 73.2384C175.986 73.6298 176.687 74.1191 176.989 74.3229C177.29 74.5268 177.877 74.9875 178.293 75.3463C179.626 76.5042 181.404 77.76 182.635 78.4164C182.905 78.5591 183.565 79.0891 184.103 79.5947C184.641 80.1002 185.351 80.6507 185.681 80.8219C186.011 80.9931 186.333 81.2133 186.395 81.3152C186.615 81.6699 187.593 81.9717 187.94 81.7882C188.331 81.5762 188.829 80.6262 189.342 79.1217C189.55 78.502 189.791 77.9149 189.872 77.813C189.95 77.711 190.141 77.1973 190.292 76.6714C190.443 76.1454 190.761 75.4115 190.998 75.0405C191.772 73.8255 192.527 72.264 192.759 71.3915C192.885 70.9185 193.207 70.095 193.481 69.5568C193.75 69.0227 194.055 68.2032 194.153 67.7343C194.255 67.2695 194.553 66.5356 194.818 66.1034C195.083 65.6753 195.275 65.1902 195.246 65.0352C195.173 64.6438 194.182 64.5704 193.187 64.8803C192.396 65.129 190.57 65.5449 189.558 65.712C187.711 66.0178 185.787 64.3299 184.535 61.3006C184.279 60.6849 183.875 59.894 183.638 59.5433C183.402 59.1968 183.206 58.7931 183.206 58.6463C183.202 58.2101 182.517 56.9584 181.698 55.9024C181.27 55.352 180.772 54.5529 180.589 54.1289C180.405 53.7008 179.94 52.8731 179.549 52.2819C179.162 51.6908 178.652 50.8346 178.424 50.3738C178.191 49.9172 177.78 49.3301 177.506 49.0691C177.233 48.8123 177.009 48.531 177.009 48.4453C177.009 48.3597 176.834 48.1029 176.622 47.8745C176.406 47.6462 176.055 47.1162 175.835 46.7003C175.619 46.2845 175.199 45.7055 174.901 45.4079C174.391 44.8982 172.72 42.982 171.741 41.7833C171.493 41.4775 170.465 40.3726 169.458 39.3289C167.399 37.1924 167.387 37.1761 166.991 36.5768C166.837 36.3322 166.551 36.0875 166.359 36.0264C166.168 35.9652 165.222 35.1213 164.256 34.1509C163.289 33.1805 162.005 31.9982 161.398 31.5293C160.468 30.8117 159.453 29.9759 158.095 28.8139C157.5 28.3084 156.566 27.6438 156.448 27.6438C156.224 27.6438 154.862 26.6734 154.214 26.0578C153.879 25.7357 153.129 25.2179 152.546 24.904C151.963 24.59 151.372 24.2353 151.229 24.113C151.087 23.9907 150.903 23.8887 150.822 23.8887C150.74 23.8847 150.381 23.6645 150.031 23.3995C149.676 23.1304 149.317 22.9143 149.223 22.9143C149.134 22.9143 148.909 22.7798 148.726 22.6126C148.538 22.4454 147.874 22.0336 147.246 21.6993C146.618 21.3691 145.994 21.0062 145.86 20.9002C145.566 20.6719 144.853 20.3212 143.332 19.6608C142.704 19.3876 142.007 19.0573 141.782 18.9269C140.621 18.2541 137.917 17.0188 137.249 16.8598C136.825 16.7578 136.189 16.5091 135.83 16.3093C135.471 16.1055 134.921 15.8853 134.607 15.8201C134.293 15.7549 133.433 15.4572 132.695 15.1637C131.957 14.866 130.966 14.5439 130.493 14.442C130.02 14.3401 129.229 14.1199 128.736 13.9528C128.242 13.7856 127.358 13.5369 126.766 13.4023C126.179 13.2678 125.225 12.9376 124.646 12.6725C124.071 12.4034 123.195 12.1384 122.701 12.0814C121.878 11.9876 119.607 11.5839 117.532 11.1599C116.671 10.9887 114.405 10.7114 110.225 10.2752C107.127 9.95309 95.136 9.96939 92.7753 10.2996ZM95.6293 23.2364C94.7772 23.3098 93.4929 23.481 92.7753 23.6156C92.0577 23.7542 90.8835 23.9132 90.1659 23.9703C88.3108 24.1211 86.0725 24.6389 85.0573 25.1527C84.2378 25.5644 83.5324 26.2698 83.0839 27.1219C82.8882 27.497 81.2329 29.6497 79.4797 31.8188C78.966 32.4548 78.4605 33.1316 78.3585 33.3192C78.2566 33.5108 77.9182 33.943 77.6083 34.2814C77.2944 34.6238 77.0375 34.9541 77.0375 35.0193C77.0375 35.0805 76.797 35.3822 76.5075 35.6798C76.0346 36.1691 75.5698 36.6624 75.105 37.1598C73.784 38.5664 73.5557 38.6521 71.1665 38.648C69.3195 38.648 69.0423 38.6072 68.2309 38.224C67.4399 37.8529 67.2687 37.6817 66.7835 36.7603C66.4818 36.1854 66.0211 35.317 65.7642 34.8318C65.5074 34.3425 65.2954 33.8451 65.2954 33.7228C65.2954 33.2254 64.8061 32.573 64.3739 32.4915C63.742 32.3692 63.318 32.569 62.0214 33.6086C60.9654 34.4485 60.4884 34.7421 58.4458 35.8185C58.0421 36.0305 57.6915 36.2547 57.663 36.3118C57.6344 36.3729 57.2145 36.6624 56.7252 36.96C56.236 37.2536 55.8364 37.5512 55.8364 37.6165C55.8364 37.6776 55.4532 37.9589 54.9802 38.2403C54.5073 38.5175 53.5369 39.2188 52.8193 39.7977C52.1018 40.3726 51.0376 41.1758 50.4546 41.5754C49.8716 41.9749 48.9542 42.7455 48.416 43.2918C47.1684 44.5598 46.7362 44.9553 46.1328 45.4079C45.8637 45.6077 45.3622 46.1132 45.0157 46.5332C44.6691 46.949 43.6662 48.0621 42.7855 49.0039C41.9008 49.9498 40.8448 51.177 40.4371 51.7397C40.0294 52.2982 39.4096 53.0321 39.0671 53.3705C38.7247 53.7049 38.1743 54.3857 37.8481 54.8791C37.0204 56.1226 36.7187 56.5385 36.3925 56.8687C36.2376 57.0236 35.8911 57.5944 35.6179 58.1367C35.3447 58.6749 35.0552 59.1193 34.9778 59.1193C34.9003 59.1193 34.7454 59.3558 34.6271 59.6493C34.513 59.9429 34.1909 60.5096 33.9096 60.9132C33.6282 61.3169 33.2695 61.9203 33.1145 62.2587C32.9555 62.593 32.666 63.0456 32.4663 63.2617C32.2706 63.4737 32.0137 63.9548 31.8995 64.3299C31.7854 64.7009 31.5122 65.2799 31.292 65.6101C31.076 65.9444 30.8109 66.4704 30.709 66.7843C30.5092 67.3918 29.7264 68.9982 29.0374 70.2091C28.8091 70.6127 28.4707 71.4567 28.2913 72.0846C28.1078 72.7125 27.5859 74.327 27.1293 75.6725C26.6767 77.0179 26.1875 78.6692 26.0488 79.3419C25.9061 80.0146 25.6615 80.8219 25.5025 81.1358C25.1763 81.7841 24.7686 83.525 24.6096 84.9683C24.5485 85.5065 24.3609 86.5992 24.1897 87.3942C23.8594 88.9191 23.835 89.2004 23.4599 95.7524C23.256 99.3403 23.256 100.449 23.468 104.641C23.733 109.904 23.7983 110.63 24.1285 111.967C24.2508 112.465 24.4221 113.366 24.5077 113.965C24.6789 115.168 25.001 115.698 25.9591 116.338C26.2894 116.562 26.9662 117.104 27.4595 117.541C27.9529 117.981 28.7601 118.568 29.2535 118.849C29.7468 119.131 30.7009 119.807 31.3736 120.35C32.0463 120.896 32.9514 121.593 33.3795 121.907C36.5434 124.207 38.6472 126.237 39.4259 127.742C39.9519 128.753 39.6216 130.412 38.6961 131.448C38.3292 131.855 37.9622 132.263 37.5994 132.671C36.8329 133.531 36.3436 133.8 34.4722 134.387C32.9229 134.873 32.6783 135.019 32.6783 135.468C32.6783 135.794 33.7342 137.963 34.301 138.787C34.4844 139.056 34.6353 139.41 34.6353 139.578C34.6353 139.741 34.7698 139.912 34.9288 139.953C35.0919 139.997 35.3121 140.23 35.4181 140.47C35.6056 140.899 36.0174 141.543 37 142.949C37.2691 143.337 37.6198 143.875 37.7829 144.152C37.9419 144.429 38.3536 144.915 38.7002 145.228C39.0427 145.542 39.536 146.13 39.7929 146.529C40.0497 146.929 40.3718 147.377 40.5064 147.524C40.6409 147.671 41.0812 148.176 41.4849 148.649C43.1647 150.618 46.5732 154.084 47.8452 155.116C48.1592 155.372 48.7177 155.894 49.0847 156.273C49.4516 156.657 49.8389 156.971 49.9409 156.971C50.0428 156.971 50.1284 157.028 50.1284 157.093C50.1325 157.203 50.8052 157.766 53.5818 159.984C54.0914 160.387 54.5684 160.722 54.6418 160.722C54.7152 160.722 55.3105 161.199 55.9669 161.782C56.6192 162.365 57.2634 162.842 57.3939 162.842C57.5243 162.842 57.6304 162.915 57.6304 163.005C57.6304 163.094 57.8057 163.168 58.0177 163.168C58.2297 163.168 58.5029 163.282 58.6211 163.425C58.7353 163.567 59.3713 163.987 60.0277 164.362C60.6841 164.738 61.5689 165.243 61.9929 165.488C62.421 165.732 63.1916 166.148 63.7053 166.413C64.2231 166.674 64.8714 167.082 65.1445 167.314C65.4218 167.547 65.8417 167.783 66.0823 167.844C66.3228 167.901 66.7754 168.118 67.0893 168.321C67.4033 168.525 68.2839 168.888 69.0463 169.129C69.8088 169.373 70.506 169.626 70.5956 169.695C70.6853 169.765 71.1461 169.936 71.6149 170.075C72.0879 170.213 73.1439 170.662 73.9593 171.069C74.7747 171.477 75.5738 171.811 75.741 171.811C75.9041 171.811 76.0794 171.877 76.1283 171.958C76.1813 172.04 76.7888 172.231 77.486 172.382C78.1791 172.537 79.5939 172.904 80.6254 173.198C81.6569 173.491 83.0146 173.781 83.6425 173.846C84.2704 173.907 85.3345 174.099 86.0072 174.266C86.68 174.437 87.8827 174.653 88.6778 174.751C89.4728 174.845 90.5736 175.028 91.1241 175.155C93.3869 175.672 97.6352 175.929 102.316 175.831C106.739 175.738 111.163 175.412 112.378 175.089C112.717 175 113.512 174.845 114.139 174.747C117.695 174.192 118.755 173.487 120.948 170.201C121.287 169.695 122.041 168.733 122.624 168.06C124.1 166.364 125.144 165.031 125.78 164.024C126.077 163.551 126.383 163.168 126.452 163.168C126.628 163.168 127.582 162.173 128.083 161.468C128.418 160.995 128.719 160.819 129.779 160.481C130.489 160.253 131.406 160.069 131.818 160.073C132.589 160.073 134.99 160.758 135.39 161.089C135.512 161.19 135.826 161.692 136.083 162.21C136.344 162.723 136.629 163.188 136.723 163.245C136.812 163.302 137.004 163.763 137.155 164.269C137.799 166.487 138.305 166.695 140.404 165.61C141.118 165.243 142.215 164.615 142.843 164.22C143.47 163.824 144.351 163.327 144.8 163.111C145.248 162.899 146.149 162.275 146.806 161.725C147.458 161.174 148.09 160.722 148.204 160.722C148.322 160.722 148.632 160.534 148.893 160.302C149.154 160.069 149.733 159.604 150.181 159.266C150.63 158.928 151.225 158.434 151.506 158.169C151.788 157.904 152.302 157.48 152.648 157.223C152.995 156.967 153.431 156.604 153.618 156.416C153.806 156.229 154.344 155.743 154.817 155.34C156.052 154.284 160.635 149.64 161.141 148.93C161.377 148.596 161.626 148.327 161.695 148.327C161.765 148.327 162.343 147.634 162.98 146.782C163.62 145.934 164.203 145.2 164.28 145.151C164.354 145.106 164.578 144.756 164.778 144.376C164.973 143.997 165.52 143.276 165.988 142.77C166.453 142.264 167.016 141.437 167.232 140.935C167.452 140.43 167.725 140.014 167.835 140.014C167.945 140.01 168.039 139.928 168.039 139.826C168.039 139.724 168.333 139.211 168.692 138.685C169.05 138.159 169.344 137.69 169.344 137.645C169.344 137.596 169.666 137.025 170.057 136.377C171.036 134.754 171.811 133.258 172.275 132.1C172.491 131.562 173.054 130.367 173.531 129.442C174.661 127.24 175.17 126.025 175.623 124.435C175.827 123.717 176.145 122.747 176.332 122.282C176.52 121.818 176.777 120.782 176.903 119.987C177.033 119.188 177.315 118.14 177.535 117.655C178.02 116.574 178.244 115.743 178.554 113.834C178.689 113.027 178.905 111.743 179.035 110.98C179.402 108.885 179.818 100.555 179.696 97.689C179.529 93.6363 179.137 89.4899 178.713 87.3331C178.493 86.2119 178.314 85.0784 178.314 84.8175C178.314 83.7248 177.612 82.8809 175.317 81.2174C174.355 80.5161 173.393 79.7863 173.099 79.5335C172.964 79.4153 172.3 78.9179 171.627 78.4327C170.331 77.495 169.589 76.9282 169.275 76.6306C169.169 76.5327 168.924 76.3982 168.724 76.337C168.529 76.2718 168.365 76.1617 168.365 76.0883C168.365 75.9008 166.694 74.6369 165.874 74.2047C165.051 73.7685 163.978 72.3048 163.558 71.0368C163.086 69.6179 163.367 68.5253 164.659 66.7232C165.295 65.8425 165.458 65.7202 166.735 65.2105C167.497 64.9088 168.459 64.5827 168.875 64.4889C169.291 64.3951 169.792 64.1464 169.996 63.9344L170.359 63.5471L169.976 62.5563C169.764 62.01 169.381 61.3413 169.124 61.0682C168.431 60.322 167.615 59.0663 167.126 57.9695C166.869 57.3987 166.396 56.7301 165.976 56.3428C165.585 55.9799 165.03 55.2664 164.749 54.7527C164.464 54.239 164.117 53.6967 163.974 53.5499C163.832 53.4031 163.351 52.759 162.902 52.1189C162.185 51.0955 159.494 48.1681 159.123 48.005C159.049 47.9765 158.593 47.4709 158.111 46.892C157.63 46.3089 157.043 45.7137 156.807 45.5669C156.57 45.4242 155.681 44.5925 154.829 43.7281C153.977 42.8597 153.023 41.9912 152.709 41.7996C152.395 41.608 152.028 41.3471 151.894 41.2207C151.453 40.8129 148.897 38.9048 147.98 38.3014C147.486 37.9753 146.716 37.4085 146.267 37.0375C145.395 36.3199 145.203 36.1935 144.066 35.5494C143.006 34.95 142.308 34.5138 140.963 33.6086C140.307 33.1683 139.393 32.6668 138.941 32.4956C138.484 32.3243 138.003 32.0879 137.868 31.9696C137.579 31.7209 133.893 29.927 133.665 29.927C133.579 29.927 133.318 29.7761 133.082 29.5927C132.849 29.4092 132.022 29.0422 131.247 28.7813C130.473 28.5163 129.755 28.235 129.653 28.1534C129.38 27.9292 123.782 26.176 123.338 26.176C123.203 26.176 122.807 26.0252 122.449 25.8458C121.825 25.5237 120.463 25.1771 118.624 24.8673C117.833 24.7327 117.047 24.59 116.26 24.4473C115.452 24.3005 114.168 24.113 113.406 24.0274C112.643 23.9417 111.139 23.7216 110.062 23.5381C108.403 23.2486 107.278 23.1916 102.642 23.1508C99.6371 23.1263 96.4814 23.163 95.6293 23.2364ZM98.9929 40.5928C98.0063 40.9638 96.7994 41.8648 96.5711 42.403C96.3428 42.9412 96.3306 44.2663 96.5507 44.6618C96.6282 44.8004 97.1011 45.3426 97.6026 45.8686C98.7605 47.0877 99.9755 49.4932 100.232 51.0792C100.33 51.6867 100.53 52.3716 100.677 52.5959C100.979 53.0484 101.362 54.2308 101.92 56.4284C102.622 59.1886 102.789 59.7268 103.107 60.2772C103.282 60.583 103.584 61.4188 103.775 62.1364C103.971 62.854 104.297 63.6979 104.501 64.0159C104.709 64.3299 104.929 64.7457 104.99 64.9374C105.052 65.129 105.202 65.3247 105.325 65.3736C105.451 65.4225 105.843 65.8506 106.193 66.3277C106.89 67.2695 108.562 68.9656 109.104 69.2795C110.833 70.2784 111.465 70.5149 113.128 70.7881C114.686 71.0408 115.114 71.0531 116.798 70.8737C117.85 70.7636 119.065 70.6005 119.505 70.519C120.524 70.3233 121.319 70.5638 121.625 71.1591C121.747 71.3996 121.964 72.0071 122.106 72.5086C122.253 73.0101 122.502 73.5972 122.665 73.8133C122.828 74.0294 123.048 74.4086 123.154 74.6573C123.419 75.2688 124.108 78.025 124.34 79.4234C124.447 80.0513 124.712 80.985 124.924 81.4987C125.136 82.0124 125.311 82.7626 125.311 83.1663C125.311 84.2671 124.956 84.3975 121.902 84.3975C120.557 84.3975 119.069 84.4791 118.592 84.581C117.369 84.842 116.064 85.9917 115.428 87.3698L114.955 88.3931L114.91 114.568C114.882 129.756 114.926 141.677 115.016 142.966C115.142 144.796 115.244 145.347 115.591 146.109C115.823 146.615 116.015 147.096 116.015 147.177C116.015 147.41 117.996 148.645 118.661 148.824C119.048 148.93 122.526 148.971 128.202 148.943L137.135 148.898L138.284 148.299C140.013 147.406 140.763 146.117 141.13 143.435C141.42 141.327 141.428 90.5336 141.138 89.2086C140.804 87.6593 140.278 86.6767 139.251 85.6615C138.105 84.528 137.701 84.3975 135.332 84.3975C134.105 84.3975 133.433 84.3282 133.237 84.1855C132.955 83.9776 132.96 83.9205 133.286 82.8401C133.954 80.6303 134.529 80.4223 137.318 81.3845C139.23 82.045 141.778 82.3671 143.576 82.1837C144.563 82.0777 146.659 81.462 147.735 80.9564C148.652 80.5243 150.891 78.3511 151.629 77.181C151.951 76.6632 152.277 76.2433 152.355 76.2433C152.567 76.2433 153.439 74.8203 154.063 73.4504C154.373 72.7655 154.703 72.1621 154.793 72.105C154.886 72.052 155.05 71.6198 155.156 71.1469C155.266 70.678 155.641 69.6872 155.987 68.9493C156.338 68.2113 156.623 67.506 156.623 67.3796C156.623 67.2573 156.839 66.7558 157.1 66.2624C157.361 65.7691 157.696 64.9578 157.842 64.4563C157.989 63.9548 158.242 63.3758 158.401 63.1679C158.564 62.96 158.796 62.4952 158.915 62.1364C159.065 61.6797 159.616 61.0029 160.749 59.8695C161.642 58.9807 162.47 58.0103 162.596 57.7127C162.918 56.938 162.878 55.6333 162.511 54.9117C161.744 53.4154 160.692 53.1708 155.726 53.3216C151.702 53.4439 149.859 53.6111 148.693 53.9536C147.527 54.292 143.336 55.5029 142.109 55.8494C139.846 56.4855 137.616 57.6067 135.911 58.9562C135.508 59.2742 134.974 59.6412 134.721 59.7676C134.472 59.894 133.848 60.4077 133.335 60.9092C131.104 63.0945 129.339 65.5122 129.164 66.6212C129.07 67.188 128.397 68.089 128.063 68.089C127.879 68.089 127.431 66.9963 127.431 66.5519C127.431 66.3154 127.627 65.7365 127.867 65.2717C128.246 64.5337 128.715 62.8784 129.225 60.5055C129.4 59.6738 129.221 58.3406 128.642 56.1838C128.153 54.3654 127.598 53.2604 126.636 52.1678C126.31 51.8008 125.898 51.2912 125.719 51.0384C125.038 50.0721 123.032 48.2211 122.11 47.7033C121.584 47.4098 121.005 47.0306 120.826 46.8634C119.949 46.0561 119.338 45.677 118.176 45.2326C117.483 44.9635 116.802 44.6495 116.667 44.5313C116.533 44.4131 115.909 44.1358 115.281 43.9116C114.653 43.6873 113.332 43.1573 112.346 42.7333C111.294 42.2766 110.046 41.873 109.328 41.7548C108.048 41.5428 105.916 41.1677 103.702 40.7681C101.61 40.3889 99.7227 40.3196 98.9929 40.5928ZM107.241 48.3883C107.009 48.6207 106.992 49.114 107.196 49.7582C107.278 50.0191 107.539 51.1118 107.783 52.1882C108.024 53.2645 108.354 54.5855 108.517 55.1237C108.68 55.6619 108.86 56.3754 108.913 56.7097C108.97 57.044 109.308 57.888 109.663 58.5811C110.018 59.2742 110.307 59.951 110.307 60.0774C110.307 60.2038 110.527 60.7787 110.796 61.3454C111.065 61.9162 111.286 62.4422 111.286 62.5115C111.286 62.5849 111.701 63.0415 112.207 63.5308L113.124 64.4155L114.898 64.4767C117.503 64.5664 117.715 64.2606 116.251 62.5156C115.677 61.8347 115.004 61.2476 114.417 60.9214C111.428 59.2579 110.503 58.1449 110.682 56.4202C110.788 55.3724 111.196 54.5733 111.93 53.9617C112.452 53.5255 112.586 53.4928 113.899 53.4928C115.191 53.4928 115.371 53.5336 116.027 53.978C116.427 54.243 117.083 54.7649 117.495 55.14C117.907 55.511 118.408 55.8698 118.612 55.9351C119.191 56.1185 119.464 56.3672 121.168 58.2794C121.78 58.9684 122.049 58.8543 122.049 57.9084C122.049 56.6649 119.786 53.5989 118.286 52.8079C117.964 52.6407 117.413 52.2779 117.063 52.0088C116.708 51.7356 116.166 51.4135 115.852 51.2912C115.538 51.1689 115.053 50.8957 114.776 50.6878C114.498 50.4839 114.192 50.3127 114.091 50.3127C113.993 50.3127 113.267 50.0599 112.476 49.75C110.849 49.114 107.995 48.1926 107.661 48.1926C107.539 48.1926 107.347 48.2823 107.241 48.3883ZM71.1665 60.477L69.7802 61.1579L69.0912 62.4625C68.1371 64.2769 68.1412 64.9741 69.1279 67.1268C70.2654 69.6057 70.1757 69.9115 68.0148 71.1061C67.3992 71.4445 66.861 71.8155 66.8161 71.9337C66.7713 72.052 66.4981 72.2273 66.2127 72.3211C65.9273 72.4148 65.3117 72.7451 64.8469 73.0509C64.3821 73.3567 63.8317 73.6624 63.6278 73.7236C63.2323 73.85 60.8105 75.2566 59.9951 75.8396C59.726 76.0313 58.882 76.492 58.1196 76.8589C57.3572 77.2299 56.4847 77.7151 56.1789 77.9434C55.8731 78.1677 55.2656 78.4735 54.8334 78.6162C54.3972 78.7589 54.0425 78.926 54.0384 78.9872C54.0384 79.0483 53.6633 79.3174 53.2107 79.5865C52.7582 79.8556 52.1344 80.2389 51.8245 80.4386C51.5147 80.6425 51.0621 80.8545 50.8175 80.9157C50.5728 80.9768 50.0999 81.197 49.7656 81.4049C49.4312 81.6169 49.1254 81.7882 49.0847 81.7882C49.0439 81.7882 48.5465 82.098 47.9798 82.4772C46.83 83.2478 46.5324 83.4231 45.0483 84.2182C44.4775 84.5199 43.7925 84.9317 43.5235 85.1274C43.2544 85.3271 42.7773 85.584 42.4634 85.7022C42.1495 85.8205 41.7825 86.0039 41.648 86.114C41.5134 86.22 41.277 86.3505 41.122 86.4035C40.9712 86.4565 40.3392 86.8357 39.7195 87.2434C39.0998 87.6511 38.5208 87.9854 38.4311 87.9854C38.1253 87.9854 36.2539 89.5877 35.834 90.2075C35.2183 91.1167 35.0226 92.4377 35.2469 94.2153C35.4222 95.5811 35.5037 95.8054 36.3803 97.2365C36.9022 98.0845 37.5382 99.1568 37.7951 99.6216C38.0519 100.082 38.6554 101.036 39.1405 101.738C39.6216 102.439 40.0171 103.091 40.0171 103.181C40.0171 103.275 40.4289 103.744 40.9304 104.221C41.8722 105.118 42.3615 105.313 44.2736 105.546C45.4805 105.692 47.6169 105.187 48.4935 104.543C48.8971 104.245 49.6351 103.809 50.1284 103.576C50.6218 103.344 51.3189 102.969 51.6777 102.745C52.0365 102.516 52.8438 102.084 53.4717 101.787C54.5603 101.265 56.3134 100.164 56.4888 99.8947C56.5948 99.7357 57.9647 99.0752 58.193 99.0752C58.2908 99.0752 58.6456 98.8877 58.9799 98.6594C59.3183 98.4311 60.0644 97.9989 60.6474 97.6972C61.2264 97.3914 62.05 96.9062 62.4781 96.6127C62.9062 96.3232 64.2109 95.5893 65.3769 94.99C68.6142 93.3142 69.0708 93.0574 69.8495 92.458C70.245 92.1482 70.6731 91.8995 70.7995 91.8995C70.9952 91.8995 72.2551 91.2227 75.3822 89.4247C75.7981 89.1882 76.6176 88.7234 77.2006 88.4013C77.7837 88.0751 78.5135 87.6266 78.8233 87.4024C79.9935 86.5544 80.6132 86.7541 81.5183 88.2668C82.611 90.0933 83.4998 90.8027 85.147 91.1697C86.1866 91.398 86.5414 91.4143 87.2467 91.2594C88.1681 91.0514 89.7541 90.1708 90.2638 89.5796C90.6878 89.0863 91.3279 87.7 91.8253 86.1915C92.551 83.9939 93.3909 82.041 93.8353 81.5313C94.0718 81.2541 94.3613 80.667 94.4755 80.2266C94.5855 79.7822 94.8872 78.9464 95.14 78.3634C95.3928 77.7804 95.6537 77.1199 95.719 76.8956C95.7842 76.6714 95.9677 76.3207 96.1267 76.121C96.2816 75.9171 96.5059 75.3667 96.616 74.8978C96.8157 74.0579 97.1949 73.1365 97.6719 72.3292C97.9777 71.8114 98.6219 70.3192 98.9073 69.4752C99.1968 68.6068 99.1927 66.1727 98.9032 65.6427C98.0226 64.0486 96.6282 63.1271 94.8139 62.9396C94.2308 62.8784 93.3502 62.6949 92.8568 62.5278C91.2137 61.9774 83.1002 60.8358 79.5654 60.6605C78.224 60.5952 76.8459 60.4117 75.8144 60.163C73.4986 59.6086 72.8462 59.6493 71.1665 60.477ZM149.366 60.5708C148.738 60.7379 147.527 60.9662 146.675 61.0804C145.056 61.2924 143.503 61.851 142.231 62.6827C141.848 62.9314 141.134 63.2576 140.641 63.4084C139.927 63.6245 139.414 63.9792 138.133 65.1249C137.245 65.9159 136.417 66.7639 136.287 67.0086C136.026 67.5141 136.058 68.4396 136.348 68.5334C136.454 68.5701 137.004 68.1991 137.575 67.7139C138.643 66.8129 140.339 65.92 142.353 65.2065C144.115 64.5786 144.502 64.5664 145.619 65.1005C146.83 65.6713 147.331 66.503 147.323 67.9178C147.319 69.304 146.867 70.148 145.904 70.5557C144.775 71.0327 143.568 71.6769 143.002 72.105C142.728 72.3088 142.215 72.6065 141.856 72.7696C140.837 73.2262 139.662 74.2618 139.662 74.7021C139.662 74.9997 139.854 75.171 140.58 75.5094C141.742 76.0598 142.573 76.0598 143.821 75.5053C145.619 74.7062 146.724 73.5075 147.637 71.3629C147.845 70.8737 148.155 70.2866 148.322 70.0583C148.628 69.6424 149.333 67.8851 149.635 66.7843C149.802 66.1646 150.512 64.7335 150.842 64.338C151.152 63.967 151.971 60.7583 151.796 60.5911C151.482 60.2854 150.471 60.2772 149.366 60.5708ZM77.5023 67.1349C77.3352 67.3021 77.2006 67.506 77.2006 67.5875C77.2006 67.7588 77.7347 68.9126 78.1465 69.6383C78.33 69.9645 78.4197 70.4619 78.4075 71.1346C78.3952 72.0642 78.3422 72.1987 77.7184 72.9489C77.1966 73.5727 76.6828 73.9356 75.4638 74.539C74.5953 74.9712 73.6576 75.5175 73.3803 75.7622C73.1072 76.0027 72.3855 76.4267 71.778 76.704C71.1705 76.9853 70.2572 77.4909 69.7395 77.8334C69.2257 78.1758 68.4511 78.5876 68.0189 78.7507C67.5908 78.9138 67.0404 79.2114 66.7958 79.4112C65.9192 80.1329 64.5411 80.932 63.5585 81.2867C63.004 81.4906 62.4006 81.7963 62.2171 81.9676C62.0296 82.1388 61.7116 82.3549 61.5077 82.4487C61.3039 82.5384 60.5863 82.9787 59.9136 83.4272C59.2408 83.8757 58.2868 84.4342 57.7934 84.6707C57.3001 84.9072 56.6967 85.266 56.4521 85.4698C56.2074 85.6696 55.6326 85.9591 55.1718 86.114C54.7111 86.2649 53.8835 86.7134 53.3331 87.1088C52.7826 87.5043 51.743 88.1241 51.0254 88.4828C50.3078 88.8416 48.6933 89.6856 47.4375 90.3583C46.1818 91.027 44.9056 91.6915 44.5998 91.8302C44.2981 91.9729 43.6458 92.3806 43.1565 92.7434C42.072 93.5466 42.0761 93.6567 43.2951 95.8462C44.7547 98.4678 45.0687 98.6308 46.9483 97.7706C47.5354 97.5015 48.0858 97.2813 48.1673 97.2813C48.2489 97.2813 48.4119 97.1508 48.5302 96.9959C48.836 96.5882 49.5699 96.0989 50.7848 95.4996C51.3638 95.2142 52.0243 94.8717 52.2485 94.7453C52.4728 94.6189 53.0599 94.3295 53.5532 94.1011C54.9435 93.461 55.3716 93.2042 56.1626 92.5559C56.5662 92.2216 57.398 91.716 58.0136 91.4347C58.6293 91.1493 59.62 90.6315 60.2153 90.2849C60.8105 89.9384 62.0744 89.2493 63.0244 88.7601C63.9703 88.2668 65.4095 87.4269 66.2209 86.8887C67.0322 86.3505 68.0474 85.7919 68.4837 85.6452C68.9159 85.4943 69.4214 85.2415 69.609 85.0784C69.7925 84.9153 70.4122 84.5769 70.983 84.3282C72.0797 83.8471 72.9971 83.3049 73.5271 82.8156C73.8777 82.4976 75.2844 81.7026 76.691 81.0258C77.1721 80.7934 77.9957 80.3204 78.5175 79.9739C79.0394 79.6273 79.5246 79.3419 79.598 79.3378C79.6714 79.3378 79.9119 79.191 80.1362 79.0157C80.446 78.7752 80.8048 78.6977 81.6243 78.6936L82.7088 78.6896L83.7526 79.7088C84.3275 80.2715 85.045 81.0788 85.3467 81.5028C85.9135 82.2978 86.1703 82.4283 86.4598 82.0736C86.6718 81.8126 87.3894 79.7904 87.8705 78.1106C88.2089 76.9201 89.3179 74.5716 89.8316 73.9601C89.9458 73.8255 90.0803 73.5687 90.1292 73.3893C90.1781 73.2099 90.4554 72.4393 90.7408 71.6769C91.0262 70.9145 91.2953 70.1235 91.3442 69.9156C91.4543 69.4304 90.8264 68.7413 90.2719 68.7413C90.0518 68.7413 89.2363 68.6313 88.4658 68.4926C86.8186 68.2032 79.1617 66.9922 78.3585 66.8985C77.9712 66.8536 77.7143 66.9229 77.5023 67.1349ZM191.034 89.127C190.455 89.5755 189.085 89.8201 187.552 89.7549L186.24 89.6978L186.085 90.236C185.971 90.6152 186.015 91.4918 186.24 93.2531C186.77 97.4892 186.619 102.957 185.799 109.235C185.706 109.937 185.526 110.801 185.4 111.164C185.273 111.523 185.025 112.974 184.845 114.381C184.666 115.792 184.327 117.602 184.095 118.409C183.859 119.212 183.561 120.492 183.426 121.255C183.292 122.017 183.047 122.947 182.884 123.318C182.721 123.689 182.533 124.239 182.468 124.541C182.403 124.843 182.069 125.715 181.722 126.486C181.38 127.252 181.013 128.28 180.911 128.769C180.809 129.254 180.593 129.874 180.434 130.143C180.275 130.412 180.091 130.816 180.022 131.04C179.953 131.264 179.659 131.945 179.361 132.553C179.068 133.16 178.742 133.91 178.64 134.224C178.534 134.538 178.171 135.215 177.828 135.729C177.49 136.247 177.16 136.903 177.099 137.188C177.038 137.478 176.858 137.881 176.703 138.085C176.548 138.293 176.287 138.774 176.116 139.162C175.949 139.545 175.733 139.912 175.635 139.977C175.537 140.038 175.276 140.458 175.056 140.907C174.832 141.355 174.302 142.179 173.874 142.737C173.446 143.296 172.936 144.066 172.744 144.45C172.549 144.833 172.19 145.367 171.949 145.636C171.705 145.905 171.46 146.317 171.407 146.554C171.35 146.79 170.771 147.605 170.119 148.368C169.47 149.13 168.643 150.141 168.284 150.618C167.925 151.095 167.252 151.87 166.792 152.339C166.074 153.069 165.609 153.603 164.097 155.425C163.978 155.568 163.55 156.025 163.147 156.445C162.743 156.861 162.156 157.509 161.842 157.884C161.528 158.259 160.827 158.919 160.285 159.356C159.037 160.363 158.886 160.493 157.602 161.7C157.019 162.251 156.065 163.021 155.482 163.412C154.899 163.808 154.206 164.358 153.941 164.636C153.676 164.913 152.958 165.406 152.35 165.736C151.739 166.067 151.241 166.385 151.241 166.45C151.241 166.731 147.295 169.304 145.126 170.433C144.498 170.764 143.837 171.163 143.658 171.326C143.303 171.648 140.103 173.279 139.825 173.279C139.732 173.279 139.381 173.45 139.047 173.658C138.301 174.127 136.499 174.747 135.887 174.747C135.638 174.747 135.027 174.596 134.525 174.409C133.795 174.135 133.498 173.903 133.004 173.226C132.336 172.309 132.006 171.396 131.985 170.405C131.969 169.549 131.622 168.643 131.284 168.578C131.003 168.521 130.33 169.141 129.184 170.503C128.85 170.902 128.573 171.294 128.573 171.375C128.573 171.542 128.083 172.146 126.881 173.463C126.42 173.968 125.653 174.943 125.172 175.624C124.691 176.308 124.243 176.867 124.169 176.867C124.096 176.867 123.9 177.079 123.737 177.336C123.179 178.204 121.323 180.634 120.626 181.401C119.949 182.143 119.644 183.036 119.79 183.814C119.884 184.287 120.761 184.773 122.571 185.36C123.497 185.657 124.455 186.069 124.707 186.273C124.956 186.477 125.727 186.823 126.42 187.044C128.185 187.606 129.873 188.255 130.452 188.593C130.725 188.752 131.463 189.037 132.099 189.233C132.731 189.425 133.437 189.73 133.665 189.91C134.272 190.383 136.189 190.803 136.702 190.57C137.073 190.399 137.094 190.334 136.996 189.457C136.939 188.948 136.776 188.197 136.633 187.794C135.973 185.931 136.038 184.202 136.812 183.032C137.375 182.18 138.704 181.168 139.446 181.03C139.789 180.969 140.739 180.589 141.558 180.194C142.378 179.799 143.099 179.476 143.161 179.476C143.222 179.476 143.511 179.293 143.805 179.069C144.102 178.844 144.416 178.661 144.506 178.661C144.596 178.661 145.101 178.38 145.631 178.041C146.161 177.699 146.814 177.303 147.083 177.165C147.352 177.022 148.167 176.598 148.897 176.219C149.627 175.84 150.581 175.22 151.017 174.841C151.453 174.462 152.216 173.956 152.709 173.72C153.203 173.483 154.157 172.888 154.829 172.399C155.502 171.905 156.118 171.497 156.203 171.493C156.285 171.489 156.872 171.057 157.508 170.535C158.14 170.009 159.065 169.308 159.559 168.97C160.052 168.631 160.574 168.236 160.717 168.085C162.604 166.116 166.196 163.005 166.584 163.005C166.653 163.005 166.979 162.564 167.305 162.026C167.632 161.488 167.966 161.048 168.043 161.048C168.296 161.048 170.567 158.728 171.957 157.052C172.699 156.155 173.572 155.144 173.89 154.806C174.212 154.467 174.55 154.06 174.64 153.901C174.734 153.742 175.117 153.199 175.5 152.69C175.884 152.18 176.194 151.695 176.194 151.605C176.194 151.515 176.287 151.385 176.406 151.312C176.524 151.238 176.793 150.924 177.009 150.61C177.225 150.296 177.457 149.999 177.531 149.95C177.706 149.827 179.455 147.157 179.455 147.01C179.455 146.945 179.72 146.501 180.042 146.019C180.369 145.538 180.695 144.992 180.768 144.8C180.841 144.609 181.29 143.875 181.767 143.17C182.244 142.464 182.77 141.555 182.937 141.151C183.104 140.748 183.304 140.307 183.386 140.173C183.467 140.038 184.054 138.864 184.694 137.563C185.33 136.263 185.942 135.089 186.052 134.954C186.162 134.82 186.456 134.122 186.708 133.405C186.961 132.687 187.332 131.77 187.532 131.366C187.728 130.963 187.94 130.339 188.001 129.98C188.062 129.621 188.409 128.41 188.767 127.289C189.114 126.2 189.461 125.116 189.803 124.027C190.019 123.355 190.239 122.372 190.3 121.842C190.362 121.312 190.635 120.321 190.908 119.64C191.181 118.959 191.54 117.594 191.707 116.611C191.874 115.624 192.123 114.528 192.266 114.173C192.445 113.724 192.571 112.587 192.669 110.499C192.751 108.836 192.902 106.3 193.008 104.865C193.269 101.261 192.967 90.0158 192.584 89.0863C192.425 88.6989 191.556 88.7193 191.034 89.127ZM122.587 90.9332C122.392 91.0066 122.098 91.2675 121.935 91.5162C121.654 91.9443 121.641 93.1552 121.605 116.843L121.568 141.722L121.959 142.199L122.355 142.68L127.949 142.644L133.547 142.607L133.926 142.179L134.309 141.755L134.223 116.949C134.179 103.307 134.077 91.928 133.995 91.663C133.901 91.3409 133.71 91.1452 133.42 91.0677C132.78 90.8965 123.007 90.7742 122.587 90.9332ZM84.6088 98.8999C83.7934 99.0345 83.2429 99.4503 82.3297 100.629C81.8771 101.208 81.5754 101.803 81.4735 102.3C81.3022 103.148 81.3593 144.466 81.5346 145.306C81.7466 146.337 83.0799 148.135 83.6466 148.156C83.7363 148.16 84.1032 148.331 84.462 148.531L85.1103 148.898H103.05L104.318 148.27C106.03 147.426 106.417 146.896 107.225 144.291C107.331 143.944 107.367 136.728 107.331 123.416L107.278 103.071L106.87 102.158C106.25 100.771 105.989 100.449 104.884 99.7072C103.983 99.1038 103.714 99.01 102.56 98.8999C100.991 98.745 85.5506 98.745 84.6088 98.8999ZM88.7797 105.493C88.3434 105.635 88.1641 105.815 88.0173 106.251C87.8787 106.671 87.8256 111.498 87.8134 124.366L87.793 141.914L88.1355 142.346L88.478 142.782H93.8353C96.7831 142.782 99.3721 142.717 99.5882 142.631C99.8043 142.55 100.065 142.277 100.171 142.02C100.314 141.677 100.351 137.029 100.318 123.811L100.277 106.059L99.8124 105.66L99.3517 105.264L94.3491 105.285C91.0629 105.297 89.1548 105.366 88.7797 105.493ZM51.1926 116.375C49.9164 116.587 49.2437 116.966 48.7422 117.761C48.4935 118.16 48.2285 118.482 48.151 118.482C48.0776 118.482 47.886 118.902 47.727 119.42C47.462 120.285 47.4375 121.308 47.4457 132.508C47.4579 145.616 47.4497 145.477 48.3345 146.823C48.9583 147.773 49.3497 148.042 50.7808 148.502L52.0039 148.898H60.5659C69.1075 148.898 69.1279 148.898 69.9433 148.531C71.9696 147.614 72.4956 147.1 73.0786 145.473C73.3477 144.715 73.364 143.826 73.3192 132.508C73.2743 120.66 73.2621 120.333 72.9318 119.416C72.5812 118.45 71.5212 117.206 70.6772 116.774C69.6783 116.26 68.5082 116.199 60.2723 116.22C55.7263 116.228 51.637 116.297 51.1926 116.375ZM14.9794 117.019C14.8 117.084 14.5676 117.312 14.4698 117.524L13.8174 118.89C13.5646 119.428 13.1977 120.105 13.0061 120.395C12.8144 120.68 12.6065 121.19 12.5454 121.52C12.4801 121.85 12.1784 122.666 11.8726 123.334C11.5628 124.003 11.2284 124.888 11.1224 125.308C11.0205 125.723 10.833 126.221 10.7106 126.412C10.5883 126.604 10.3519 127.236 10.1847 127.811C10.0216 128.39 9.61797 129.364 9.29588 129.976C8.9697 130.587 8.70469 131.211 8.70469 131.358C8.70469 131.509 8.51714 131.88 8.2929 132.19C7.70987 132.977 7.45301 133.89 7.7221 134.216C8.09312 134.661 10.2662 134.404 11.6321 133.759C12.1784 133.499 12.684 133.405 13.5402 133.405C14.6369 133.405 14.7674 133.446 15.6562 134.057C16.7693 134.824 17.8212 136.263 18.4083 137.828C18.7834 138.823 19.2767 139.826 19.4765 140.01C19.5254 140.055 19.7048 140.458 19.872 140.907C20.2226 141.853 20.4713 142.277 21.2337 143.227C21.5395 143.61 22.0573 144.454 22.3876 145.102C22.7178 145.754 23.2764 146.721 23.6311 147.255C23.9899 147.785 24.3528 148.335 24.4424 148.478C24.9358 149.244 25.2905 149.734 25.584 150.044C25.7634 150.231 26.0366 150.602 26.1875 150.867C26.3424 151.128 26.799 151.784 27.2067 152.323C27.6104 152.861 28.0711 153.538 28.2301 153.823C28.3891 154.113 28.964 154.81 29.5022 155.372C30.0444 155.939 30.8109 156.84 31.2146 157.378C31.6141 157.917 32.6783 159.091 33.5834 159.988C34.4885 160.885 35.3855 161.879 35.573 162.193C35.7647 162.511 36.4129 163.168 37.0163 163.657C37.6157 164.146 38.2191 164.656 38.3577 164.795C38.4923 164.929 38.8429 165.19 39.1324 165.37C39.4259 165.549 40.1802 166.173 40.8122 166.756C42.0679 167.914 42.2392 168.052 43.6865 169.096C44.2247 169.483 44.9912 170.115 45.3908 170.499C46.0757 171.155 46.7036 171.628 47.9186 172.382C48.204 172.562 48.7259 172.933 49.0806 173.21C49.4312 173.483 49.9613 173.805 50.2507 173.923C50.5443 174.042 51.0539 174.384 51.3842 174.686C51.7144 174.987 52.6359 175.583 53.4309 176.011C54.2259 176.435 55.2208 176.985 55.6407 177.23C56.0607 177.475 56.6641 177.805 56.978 177.964C57.292 178.123 57.5977 178.323 57.6589 178.404C57.716 178.486 57.9361 178.579 58.1482 178.612C58.3561 178.645 58.7842 178.836 59.0981 179.04C60.0236 179.64 62.7064 180.899 63.5014 181.107C63.9051 181.213 64.325 181.376 64.431 181.462C64.8632 181.817 68.1453 183.39 68.4633 183.399C68.6468 183.403 69.0953 183.517 69.4541 183.655C71.4519 184.43 73.5924 185.078 75.3048 185.437C76.373 185.657 77.486 185.988 77.7796 186.171C78.0772 186.35 78.8559 186.611 79.5124 186.746C80.1688 186.881 81.4408 187.166 82.3378 187.386C83.2348 187.602 84.4824 187.826 85.1103 187.879C87.0795 188.059 90.276 188.454 91.6337 188.687C93.4521 189.001 101.827 189.156 106.825 188.968C110.299 188.838 111.025 188.768 111.555 188.507C112.113 188.234 112.178 188.14 112.162 187.631C112.15 187.317 112.015 186.62 111.86 186.081C111.657 185.376 111.599 184.789 111.665 183.99C111.844 181.825 111.538 181.629 108.574 181.992C105.162 182.408 96.5793 182.273 93.6723 181.756C93.1789 181.67 91.2464 181.486 89.379 181.352C86.8186 181.164 85.8156 181.03 85.3019 180.797C84.356 180.377 84.2215 180.341 82.0117 179.97C80.0424 179.64 78.1791 179.134 76.2221 178.404C75.6391 178.184 74.5016 177.829 73.6943 177.617C72.887 177.405 71.7495 177.063 71.1665 176.859C68.5326 175.942 67.4685 175.534 67.0893 175.301C66.8651 175.163 66.0578 174.755 65.2954 174.396C61.4058 172.562 59.779 171.722 59.1144 171.216C58.7149 170.91 58.2175 170.617 58.0095 170.568C57.8016 170.515 57.6304 170.405 57.6304 170.327C57.6304 170.246 57.4999 170.181 57.345 170.181C57.19 170.181 56.5825 169.846 55.9995 169.443C55.4165 169.039 54.6459 168.566 54.2871 168.391C53.9283 168.215 53.0599 167.592 52.3545 167.004C51.6492 166.421 50.7685 165.806 50.3975 165.639C50.0265 165.467 49.3905 165.007 48.9868 164.603C48.5832 164.203 47.8493 163.616 47.356 163.294C46.8626 162.976 46.1532 162.434 45.7781 162.087C44.4327 160.844 42.6958 159.282 42.1454 158.826C41.8396 158.569 41.2525 157.994 40.8407 157.55C39.8418 156.461 38.635 155.258 38.2721 154.989C38.1131 154.867 37.6972 154.402 37.3588 153.954C37.0163 153.505 36.4455 152.808 36.0868 152.404C35.732 152.001 35.0634 151.157 34.6027 150.529C34.142 149.901 33.3591 148.918 32.8577 148.339C31.9403 147.279 31.5367 146.66 31.5367 146.297C31.5367 146.187 31.3899 145.962 31.2105 145.799C31.0311 145.636 30.6234 145.041 30.3095 144.478C29.9914 143.912 29.6612 143.402 29.5674 143.345C29.3228 143.194 27.9039 141.033 27.6308 140.393C27.5492 140.201 27.4188 140.018 27.3454 139.985C27.272 139.953 26.8153 139.121 26.3342 138.134C25.8491 137.148 25.1926 135.949 24.8746 135.476C24.3935 134.758 24.2834 134.428 24.2264 133.56C24.1326 132.084 24.2916 131.452 24.8991 130.869C25.6207 130.18 26.0407 129.984 27.5166 129.662C29.0822 129.315 29.7346 129.054 30.1464 128.598C30.4358 128.276 30.444 128.206 30.2279 127.819C30.0037 127.424 29.7223 127.212 28.544 126.547C28.2913 126.404 27.4677 125.797 26.7175 125.197C25.9673 124.598 25.0744 123.905 24.736 123.656C24.3935 123.408 23.4191 122.674 22.567 122.025C21.7148 121.377 20.7445 120.7 20.4061 120.525C20.0718 120.35 19.5703 119.962 19.293 119.669C19.0158 119.375 18.6978 119.135 18.5836 119.135C18.4694 119.135 18.2452 118.988 18.0821 118.809C17.919 118.629 17.707 118.482 17.6051 118.482C17.5072 118.482 17.0587 118.164 16.6103 117.777C15.6684 116.962 15.432 116.847 14.9794 117.019ZM54.2789 122.898C53.9732 123.232 53.9609 123.575 53.9609 132.781C53.9609 142.114 53.9691 142.326 54.2871 142.558C54.7356 142.884 66.1353 142.823 66.4696 142.489C66.6368 142.321 66.6938 140.417 66.7305 133.437C66.7591 128.577 66.7346 124.284 66.6816 123.905C66.5022 122.666 66.4044 122.649 60.0685 122.596C54.65 122.547 54.5888 122.551 54.2789 122.898Z" fill="white"/>
<path d="M260.186 164.068L269.906 138.388L245.426 76.4677H257.426L272.786 117.268C273.346 118.628 273.866 120.268 274.346 122.188C274.826 124.028 275.226 125.588 275.546 126.868C275.866 125.588 276.266 124.028 276.746 122.188C277.226 120.268 277.706 118.628 278.186 117.268L292.586 76.4677H304.226L271.706 164.068H260.186ZM343.42 143.668C337.98 143.668 333.62 142.228 330.34 139.348C327.06 136.388 325.42 132.388 325.42 127.348L327.58 129.868H325.42V142.468H314.62V54.8677H325.42V74.0677L325.18 89.0677H327.58L325.42 91.5877C325.42 86.6277 327.06 82.6677 330.34 79.7077C333.7 76.7477 338.06 75.2677 343.42 75.2677C350.06 75.2677 355.38 77.4677 359.38 81.8677C363.38 86.2677 365.38 92.2677 365.38 99.8677V119.188C365.38 126.708 363.38 132.668 359.38 137.068C355.38 141.468 350.06 143.668 343.42 143.668ZM339.82 134.308C344.38 134.308 347.98 132.948 350.62 130.228C353.26 127.508 354.58 123.588 354.58 118.468V100.468C354.58 95.3477 353.26 91.4277 350.62 88.7077C347.98 85.9877 344.38 84.6277 339.82 84.6277C335.42 84.6277 331.9 86.0277 329.26 88.8277C326.7 91.6277 325.42 95.5077 325.42 100.468V118.468C325.42 123.428 326.7 127.308 329.26 130.108C331.9 132.908 335.42 134.308 339.82 134.308ZM411.533 142.468C405.853 142.468 401.413 140.948 398.213 137.908C395.093 134.868 393.533 130.588 393.533 125.068V86.3077H374.933V76.4677H393.533V57.8677H404.333V76.4677H430.733V86.3077H404.333V125.068C404.333 130.108 406.733 132.628 411.533 132.628H429.533V142.468H411.533ZM469.566 143.668C464.286 143.668 459.646 142.668 455.646 140.668C451.726 138.668 448.686 135.788 446.526 132.028C444.366 128.188 443.286 123.668 443.286 118.468V100.468C443.286 95.1877 444.366 90.6677 446.526 86.9077C448.686 83.1477 451.726 80.2677 455.646 78.2677C459.646 76.2677 464.286 75.2677 469.566 75.2677C477.166 75.2677 483.286 77.3077 487.926 81.3877C492.566 85.4677 495.006 91.0277 495.246 98.0677H484.446C484.206 93.8277 482.766 90.5877 480.126 88.3477C477.566 86.0277 474.046 84.8677 469.566 84.8677C464.846 84.8677 461.086 86.2277 458.286 88.9477C455.486 91.5877 454.086 95.3877 454.086 100.348V118.468C454.086 123.428 455.486 127.268 458.286 129.988C461.086 132.708 464.846 134.068 469.566 134.068C474.046 134.068 477.566 132.908 480.126 130.588C482.766 128.268 484.206 125.028 484.446 120.868H495.246C495.006 127.908 492.566 133.468 487.926 137.548C483.286 141.628 477.166 143.668 469.566 143.668Z" fill="white"/>
</svg>
