<?xml version="1.0" encoding="UTF-8" standalone="no"?>
<!DOCTYPE svg PUBLIC "-//W3C//DTD SVG 1.1//EN" "http://www.w3.org/Graphics/SVG/1.1/DTD/svg11.dtd">
<svg xmlns="http://www.w3.org/2000/svg" version="1.1" viewBox="0.00 0.00 444.00 85.00">
<path fill="#fdfbf1" d="
  M 444.00 21.49
  L 444.00 62.24
  L 443.63 63.56
  A 0.22 0.22 0.0 0 1 443.21 63.55
  C 441.95 58.16 436.93 54.06 432.08 52.30
  Q 429.27 51.29 422.31 51.31
  Q 404.83 51.36 24.05 51.32
  Q 15.13 51.32 11.67 52.76
  Q 3.52 56.16 0.84 65.59
  A 0.16 0.16 0.0 0 1 0.52 65.54
  L 0.52 18.48
  A 0.22 0.20 -13.7 0 1 0.65 18.29
  Q 1.19 18.06 1.04 19.22
  Q 1.02 19.32 1.26 19.95
  Q 4.26 28.11 11.68 31.24
  Q 15.09 32.68 24.02 32.68
  Q 414.16 32.64 422.51 32.70
  Q 428.80 32.74 431.41 31.90
  Q 435.78 30.50 439.03 27.34
  Q 442.15 24.31 442.75 22.03
  Q 443.00 21.07 443.26 20.45
  A 0.21 0.21 0.0 0 1 443.65 20.46
  L 444.00 21.49
  Z"
/>
</svg>
