<?xml version="1.0" encoding="UTF-8" standalone="no"?>
<!DOCTYPE svg PUBLIC "-//W3C//DTD SVG 1.1//EN" "http://www.w3.org/Graphics/SVG/1.1/DTD/svg11.dtd">
<svg xmlns="http://www.w3.org/2000/svg" version="1.1" viewBox="0.00 0.00 88.00 444.00">
<path fill="#fdfbf1" d="
  M 64.45 444.00
  L 23.44 444.00
  Q 20.22 443.90 25.49 442.05
  A 3.07 2.91 -71.0 0 0 26.24 441.66
  Q 31.08 438.18 33.35 433.14
  Q 34.67 430.18 34.67 422.18
  Q 34.65 178.12 34.68 23.43
  Q 34.68 15.20 33.28 11.80
  Q 29.90 3.56 20.43 0.82
  A 0.15 0.15 0.0 0 1 20.47 0.53
  L 67.60 0.53
  A 0.13 0.13 0.0 0 1 67.63 0.79
  Q 58.11 3.47 54.69 11.91
  Q 53.32 15.29 53.32 22.24
  Q 53.35 229.50 53.32 423.92
  Q 53.32 429.74 54.40 432.47
  Q 55.93 436.37 59.20 439.64
  Q 61.84 442.29 65.46 443.17
  A 0.27 0.26 -46.3 0 1 65.47 443.68
  L 64.45 444.00
  Z"
/>
</svg>
